<svg width="512" height="512" viewBox="0 0 512 512" fill="none" xmlns="http://www.w3.org/2000/svg">
<path d="M491.66 243.26C489.619 239.674 486.884 236.531 483.615 234.014C480.346 231.497 476.608 229.657 472.62 228.6C458.151 224.876 443.2 223.378 428.28 224.16C436.28 184.46 430.28 153.06 424.16 134.44C421.721 126.791 416.52 120.325 409.572 116.302C402.625 112.279 394.428 110.988 386.58 112.68C366.228 117.213 346.877 125.428 329.48 136.92C316.739 110.893 298.188 88.1409 275.26 70.42C269.704 66.2527 262.945 64 256 64C249.055 64 242.296 66.2527 236.74 70.42C213.807 88.1358 195.255 110.889 182.52 136.92C165.123 125.428 145.772 117.213 125.42 112.68C117.572 110.988 109.375 112.279 102.428 116.302C95.4799 120.325 90.2794 126.791 87.84 134.44C81.84 153.06 75.84 184.44 83.72 224.16C68.8003 223.378 53.8486 224.876 39.38 228.6C35.3917 229.657 31.6539 231.497 28.3848 234.014C25.1158 236.531 22.3809 239.674 20.34 243.26C18.2041 246.933 16.8211 250.995 16.2717 255.208C15.7223 259.421 16.0175 263.702 17.14 267.8C23.92 292.94 44.74 340.76 107.8 378.44C170.86 416.12 226.26 416 256.1 416C285.94 416 341.44 416 404.1 378.44C467.16 340.76 487.98 292.94 494.76 267.8C495.897 263.708 496.209 259.432 495.677 255.218C495.145 251.005 493.779 246.94 491.66 243.26ZM118.28 144.28C118.304 144.181 118.365 144.094 118.45 144.039C118.536 143.983 118.64 143.962 118.74 143.98C137.35 148.184 154.912 156.124 170.36 167.32C163.326 190.331 159.833 214.278 160 238.34C160 275.82 167.54 306.34 178.22 330.9C163.037 315.704 149.9 298.593 139.14 280C103.1 217.24 110.6 168 118.28 144.28ZM124.28 350.98C70.94 319.14 53.64 280.1 48 259.4C62.7164 255.777 77.9872 254.983 93 257.06C98.012 270.485 104.133 283.47 111.3 295.88C128.897 326.219 151.951 353.043 179.3 375C159.961 369.44 141.436 361.364 124.2 350.98H124.28ZM256 380.8C237.34 366.92 192 324.34 192 238.34C192 153.4 236.76 110.48 256 96C275.24 110.52 320 153.44 320 238.38C320 324.34 274.66 366.92 256 380.8ZM341.64 167.32C357.09 156.132 374.652 148.198 393.26 144C393.36 143.982 393.464 144.003 393.55 144.059C393.635 144.114 393.696 144.201 393.72 144.3C401.4 168 408.9 217.24 372.86 280C362.11 298.617 348.972 315.749 333.78 330.96C344.46 306.44 352 275.88 352 238.4C352.173 214.318 348.68 190.35 341.64 167.32ZM464 259.44C458.46 279.94 441.2 319.06 387.82 350.98C370.583 361.357 352.058 369.426 332.72 374.98C360.069 353.023 383.123 326.199 400.72 295.86C407.887 283.45 414.008 270.465 419.02 257.04C434.029 254.972 449.294 255.78 464 259.42V259.44Z" fill="url(#paint0_linear_44_331)"/>
<defs>
<linearGradient id="paint0_linear_44_331" x1="228.043" y1="385.565" x2="564.134" y2="254.884" gradientUnits="userSpaceOnUse">
<stop stop-color="#57CF85"/>
<stop offset="1" stop-color="#3FC6D8"/>
</linearGradient>
</defs>
</svg>
