<svg width="406" height="160" viewBox="0 0 406 160" fill="none" xmlns="http://www.w3.org/2000/svg">
<path d="M162.915 76.815C162.405 75.9186 161.721 75.1328 160.904 74.5035C160.086 73.8743 159.152 73.4141 158.155 73.15C154.538 72.2189 150.8 71.8446 147.07 72.04C149.07 62.115 147.57 54.265 146.04 49.61C145.43 47.6978 144.13 46.0813 142.393 45.0756C140.656 44.0698 138.607 43.747 136.645 44.17C131.557 45.3031 126.719 47.3569 122.37 50.23C119.185 43.7232 114.547 38.0352 108.815 33.605C107.426 32.5632 105.736 32 104 32C102.264 32 100.574 32.5632 99.185 33.605C93.4516 38.0339 88.8137 43.7222 85.63 50.23C81.2807 47.3569 76.4429 45.3031 71.355 44.17C69.393 43.747 67.3438 44.0698 65.6069 45.0756C63.8699 46.0813 62.5698 47.6978 61.96 49.61C60.46 54.265 58.96 62.11 60.93 72.04C57.2 71.8446 53.4621 72.2189 49.845 73.15C48.8479 73.4141 47.9135 73.8743 47.0962 74.5035C46.2789 75.1328 45.5952 75.9186 45.085 76.815C44.551 77.7333 44.2052 78.7487 44.0679 79.802C43.9305 80.8554 44.0043 81.9255 44.285 82.95C45.98 89.235 51.185 101.19 66.95 110.61C82.715 120.03 96.565 120 104.025 120C111.485 120 125.36 120 141.025 110.61C156.79 101.19 161.995 89.235 163.69 82.95C163.974 81.9271 164.052 80.8579 163.919 79.8046C163.786 78.7513 163.445 77.735 162.915 76.815ZM69.57 52.07C69.5759 52.0452 69.5912 52.0236 69.6126 52.0096C69.6339 51.9957 69.6598 51.9905 69.685 51.995C74.3374 53.046 78.7279 55.0311 82.59 57.83C80.8314 63.5828 79.9581 69.5696 80 75.585C80 84.955 81.885 92.585 84.555 98.725C80.7592 94.9259 77.4749 90.6482 74.785 86C65.775 70.31 67.65 58 69.57 52.07ZM71.07 103.745C57.735 95.785 53.41 86.025 52 80.85C55.6791 79.9442 59.4968 79.7457 63.25 80.265C64.503 83.6214 66.0333 86.8676 67.825 89.97C72.2243 97.5546 77.9878 104.261 84.825 109.75C79.9902 108.36 75.359 106.341 71.05 103.745H71.07ZM104 111.2C99.335 107.73 88 97.085 88 75.585C88 54.35 99.19 43.62 104 40C108.81 43.63 120 54.36 120 75.595C120 97.085 108.665 107.73 104 111.2ZM125.41 57.83C129.273 55.0329 133.663 53.0495 138.315 52C138.34 51.9955 138.366 52.0007 138.387 52.0146C138.409 52.0286 138.424 52.0502 138.43 52.075C140.35 58 142.225 70.31 133.215 86C130.527 90.6543 127.243 94.9373 123.445 98.74C126.115 92.61 128 84.97 128 75.6C128.043 69.5796 127.17 63.5876 125.41 57.83ZM156 80.86C154.615 85.985 150.3 95.765 136.955 103.745C132.646 106.339 128.014 108.357 123.18 109.745C130.017 104.256 135.781 97.5496 140.18 89.965C141.972 86.8626 143.502 83.6164 144.755 80.26C148.507 79.743 152.323 79.9449 156 80.855V80.86Z" fill="url(#paint0_linear_42_159)"/>
<path d="M180.981 74V39.92H190.341V65.84H205.797V74H180.981ZM231.197 74.288C228.605 74.288 226.253 73.808 224.141 72.848C222.029 71.856 220.205 70.544 218.669 68.912C217.165 67.248 215.997 65.392 215.165 63.344C214.365 61.264 213.965 59.12 213.965 56.912C213.965 54.64 214.397 52.48 215.261 50.432C216.125 48.384 217.325 46.56 218.861 44.96C220.429 43.328 222.269 42.048 224.381 41.12C226.525 40.192 228.861 39.728 231.389 39.728C233.981 39.728 236.333 40.224 238.445 41.216C240.557 42.176 242.365 43.488 243.869 45.152C245.373 46.816 246.525 48.688 247.325 50.768C248.157 52.816 248.573 54.928 248.573 57.104C248.573 59.344 248.141 61.488 247.277 63.536C246.445 65.584 245.245 67.424 243.677 69.056C242.141 70.656 240.317 71.936 238.205 72.896C236.093 73.824 233.757 74.288 231.197 74.288ZM223.469 57.008C223.469 58.16 223.629 59.28 223.949 60.368C224.269 61.424 224.749 62.384 225.389 63.248C226.029 64.08 226.829 64.752 227.789 65.264C228.781 65.744 229.949 65.984 231.293 65.984C232.637 65.984 233.805 65.728 234.797 65.216C235.789 64.704 236.589 64.016 237.197 63.152C237.837 62.256 238.301 61.28 238.589 60.224C238.909 59.136 239.069 58.032 239.069 56.912C239.069 55.76 238.909 54.656 238.589 53.6C238.269 52.544 237.789 51.6 237.149 50.768C236.509 49.904 235.693 49.232 234.701 48.752C233.709 48.272 232.557 48.032 231.245 48.032C229.901 48.032 228.733 48.288 227.741 48.8C226.781 49.312 225.981 50 225.341 50.864C224.701 51.696 224.221 52.656 223.901 53.744C223.613 54.8 223.469 55.888 223.469 57.008ZM285.769 48.08H275.977V74H266.617V48.08H256.777V39.92H285.769V48.08ZM311.258 74.288C308.538 74.288 306.202 73.84 304.25 72.944C302.298 72.048 300.698 70.816 299.45 69.248C298.234 67.68 297.338 65.888 296.762 63.872C296.186 61.824 295.898 59.68 295.898 57.44V39.92H305.258V57.44C305.258 58.56 305.37 59.632 305.594 60.656C305.818 61.68 306.17 62.592 306.65 63.392C307.13 64.192 307.738 64.832 308.474 65.312C309.242 65.76 310.17 65.984 311.258 65.984C312.378 65.984 313.322 65.76 314.09 65.312C314.858 64.832 315.466 64.192 315.914 63.392C316.394 62.56 316.746 61.632 316.97 60.608C317.194 59.584 317.306 58.528 317.306 57.44V39.92H326.666V57.44C326.666 59.808 326.346 62.016 325.706 64.064C325.098 66.112 324.17 67.904 322.922 69.44C321.674 70.976 320.074 72.176 318.122 73.04C316.202 73.872 313.914 74.288 311.258 74.288ZM359.89 51.056C359.89 51.056 359.618 50.896 359.074 50.576C358.53 50.256 357.81 49.904 356.914 49.52C356.018 49.104 355.042 48.736 353.986 48.416C352.93 48.096 351.89 47.936 350.866 47.936C350.066 47.936 349.41 48.064 348.898 48.32C348.386 48.576 348.13 49.008 348.13 49.616C348.13 50.192 348.386 50.656 348.898 51.008C349.41 51.36 350.13 51.68 351.058 51.968C352.018 52.256 353.154 52.608 354.466 53.024C356.578 53.664 358.402 54.4 359.938 55.232C361.474 56.064 362.658 57.136 363.49 58.448C364.322 59.728 364.738 61.44 364.738 63.584C364.738 65.632 364.37 67.36 363.634 68.768C362.898 70.144 361.906 71.248 360.658 72.08C359.41 72.912 358.018 73.52 356.482 73.904C354.946 74.256 353.378 74.432 351.778 74.432C350.146 74.432 348.434 74.272 346.642 73.952C344.882 73.6 343.17 73.136 341.506 72.56C339.842 71.952 338.322 71.248 336.946 70.448L340.978 62.24C340.978 62.24 341.298 62.432 341.938 62.816C342.578 63.2 343.426 63.632 344.482 64.112C345.538 64.592 346.706 65.024 347.986 65.408C349.298 65.792 350.61 65.984 351.922 65.984C352.946 65.984 353.65 65.856 354.034 65.6C354.45 65.312 354.658 64.944 354.658 64.496C354.658 63.824 354.306 63.312 353.602 62.96C352.898 62.576 351.97 62.224 350.818 61.904C349.698 61.552 348.45 61.152 347.074 60.704C345.09 60.032 343.458 59.28 342.178 58.448C340.898 57.584 339.954 56.576 339.346 55.424C338.738 54.24 338.434 52.816 338.434 51.152C338.434 48.624 339.026 46.512 340.21 44.816C341.394 43.12 342.946 41.84 344.866 40.976C346.818 40.08 348.914 39.632 351.154 39.632C352.818 39.632 354.418 39.84 355.954 40.256C357.522 40.64 358.978 41.12 360.322 41.696C361.698 42.272 362.898 42.816 363.922 43.328L359.89 51.056Z" fill="url(#paint1_linear_42_159)"/>
<path d="M188.863 85.92H199.327L210.175 120H200.671L198.607 113.328H189.535L187.519 120H177.966L188.863 85.92ZM197.119 107.088L194.095 95.088L190.927 107.088H197.119ZM245.982 120V102.048L240.27 114.672H235.278L229.566 102.048V120H220.206V85.92H230.43L237.774 101.952L245.166 85.92H255.342V120H245.982ZM268.375 120V85.92H277.735V120H268.375ZM288.937 102.672C288.937 100.592 289.321 98.56 290.089 96.576C290.889 94.56 292.041 92.736 293.545 91.104C295.049 89.472 296.873 88.176 299.017 87.216C301.193 86.224 303.641 85.728 306.361 85.728C309.625 85.728 312.473 86.416 314.905 87.792C317.337 89.136 319.145 90.928 320.329 93.168L313.177 98.256C312.761 97.136 312.153 96.272 311.353 95.664C310.585 95.056 309.737 94.64 308.809 94.416C307.913 94.16 307.033 94.032 306.169 94.032C304.825 94.032 303.657 94.304 302.665 94.848C301.705 95.36 300.905 96.048 300.265 96.912C299.657 97.776 299.193 98.736 298.873 99.792C298.585 100.848 298.441 101.904 298.441 102.96C298.441 104.144 298.617 105.28 298.969 106.368C299.321 107.456 299.833 108.432 300.505 109.296C301.177 110.128 301.993 110.784 302.953 111.264C303.945 111.744 305.049 111.984 306.265 111.984C307.129 111.984 308.009 111.856 308.905 111.6C309.801 111.312 310.617 110.864 311.353 110.256C312.089 109.648 312.649 108.832 313.033 107.808L320.665 112.368C319.993 114.032 318.873 115.456 317.305 116.64C315.737 117.824 313.961 118.736 311.977 119.376C309.993 119.984 308.025 120.288 306.073 120.288C303.545 120.288 301.225 119.792 299.113 118.8C297.033 117.776 295.225 116.432 293.689 114.768C292.185 113.072 291.017 111.184 290.185 109.104C289.353 106.992 288.937 104.848 288.937 102.672ZM331.197 120V85.92H340.557V120H331.197ZM353.631 120V85.92H362.991V120H353.631Z" fill="url(#paint2_linear_42_159)"/>
<defs>
<linearGradient id="paint0_linear_42_159" x1="97.0108" y1="112.391" x2="181.034" y2="79.7209" gradientUnits="userSpaceOnUse">
<stop stop-color="#57CF85"/>
<stop offset="1" stop-color="#3FC6D8"/>
</linearGradient>
<linearGradient id="paint1_linear_42_159" x1="261.062" y1="80.158" x2="340.139" y2="4.4495" gradientUnits="userSpaceOnUse">
<stop stop-color="#57CF85"/>
<stop offset="1" stop-color="#3FC6D8"/>
</linearGradient>
<linearGradient id="paint2_linear_42_159" x1="261.062" y1="126.158" x2="340.139" y2="50.4495" gradientUnits="userSpaceOnUse">
<stop stop-color="#57CF85"/>
<stop offset="1" stop-color="#3FC6D8"/>
</linearGradient>
</defs>
</svg>
