<svg width="192" height="160" viewBox="0 0 192 160" fill="none" xmlns="http://www.w3.org/2000/svg">
<path d="M154.915 76.815C154.405 75.9186 153.721 75.1328 152.904 74.5035C152.087 73.8743 151.152 73.4141 150.155 73.15C146.538 72.2189 142.8 71.8446 139.07 72.04C141.07 62.115 139.57 54.265 138.04 49.61C137.43 47.6978 136.13 46.0813 134.393 45.0756C132.656 44.0698 130.607 43.747 128.645 44.17C123.557 45.3031 118.719 47.3569 114.37 50.23C111.185 43.7232 106.547 38.0352 100.815 33.605C99.4259 32.5632 97.7364 32 96 32C94.2636 32 92.5741 32.5632 91.185 33.605C85.4516 38.0339 80.8137 43.7222 77.63 50.23C73.2808 47.3569 68.4429 45.3031 63.355 44.17C61.393 43.747 59.3438 44.0698 57.6069 45.0756C55.87 46.0813 54.5699 47.6978 53.96 49.61C52.46 54.265 50.96 62.11 52.93 72.04C49.2001 71.8446 45.4621 72.2189 41.845 73.15C40.8479 73.4141 39.9135 73.8743 39.0962 74.5035C38.2789 75.1328 37.5952 75.9186 37.085 76.815C36.551 77.7333 36.2053 78.7487 36.0679 79.802C35.9306 80.8554 36.0044 81.9255 36.285 82.95C37.98 89.235 43.185 101.19 58.95 110.61C74.715 120.03 88.565 120 96.025 120C103.485 120 117.36 120 133.025 110.61C148.79 101.19 153.995 89.235 155.69 82.95C155.974 81.9271 156.052 80.8579 155.919 79.8046C155.786 78.7513 155.445 77.735 154.915 76.815ZM61.57 52.07C61.576 52.0452 61.5912 52.0236 61.6126 52.0096C61.634 51.9957 61.6599 51.9905 61.685 51.995C66.3374 53.046 70.7279 55.0311 74.59 57.83C72.8315 63.5828 71.9582 69.5696 72 75.585C72 84.955 73.885 92.585 76.555 98.725C72.7592 94.9259 69.4749 90.6482 66.785 86C57.775 70.31 59.65 58 61.57 52.07ZM63.07 103.745C49.735 95.785 45.41 86.025 44 80.85C47.6791 79.9442 51.4968 79.7457 55.25 80.265C56.503 83.6214 58.0333 86.8676 59.825 89.97C64.2243 97.5546 69.9878 104.261 76.825 109.75C71.9903 108.36 67.359 106.341 63.05 103.745H63.07ZM96 111.2C91.335 107.73 80 97.085 80 75.585C80 54.35 91.19 43.62 96 40C100.81 43.63 112 54.36 112 75.595C112 97.085 100.665 107.73 96 111.2ZM117.41 57.83C121.273 55.0329 125.663 53.0495 130.315 52C130.34 51.9955 130.366 52.0007 130.387 52.0146C130.409 52.0286 130.424 52.0502 130.43 52.075C132.35 58 134.225 70.31 125.215 86C122.527 90.6543 119.243 94.9373 115.445 98.74C118.115 92.61 120 84.97 120 75.6C120.043 69.5796 119.17 63.5876 117.41 57.83ZM148 80.86C146.615 85.985 142.3 95.765 128.955 103.745C124.646 106.339 120.014 108.357 115.18 109.745C122.017 104.256 127.781 97.5496 132.18 89.965C133.972 86.8626 135.502 83.6164 136.755 80.26C140.507 79.743 144.323 79.9449 148 80.855V80.86Z" fill="url(#paint0_linear_44_330)"/>
<defs>
<linearGradient id="paint0_linear_44_330" x1="89.0108" y1="112.391" x2="173.034" y2="79.7209" gradientUnits="userSpaceOnUse">
<stop stop-color="#57CF85"/>
<stop offset="1" stop-color="#3FC6D8"/>
</linearGradient>
</defs>
</svg>
