<svg width="268" height="160" viewBox="0 0 268 160" fill="none" xmlns="http://www.w3.org/2000/svg">
<path d="M42.9811 74V39.92H52.3411V65.84H67.7971V74H42.9811ZM93.1974 74.288C90.6054 74.288 88.2534 73.808 86.1414 72.848C84.0294 71.856 82.2054 70.544 80.6694 68.912C79.1654 67.248 77.9974 65.392 77.1654 63.344C76.3654 61.264 75.9654 59.12 75.9654 56.912C75.9654 54.64 76.3974 52.48 77.2614 50.432C78.1254 48.384 79.3254 46.56 80.8614 44.96C82.4294 43.328 84.2694 42.048 86.3814 41.12C88.5254 40.192 90.8614 39.728 93.3894 39.728C95.9814 39.728 98.3334 40.224 100.445 41.216C102.557 42.176 104.365 43.488 105.869 45.152C107.373 46.816 108.525 48.688 109.325 50.768C110.157 52.816 110.573 54.928 110.573 57.104C110.573 59.344 110.141 61.488 109.277 63.536C108.445 65.584 107.245 67.424 105.677 69.056C104.141 70.656 102.317 71.936 100.205 72.896C98.0934 73.824 95.7574 74.288 93.1974 74.288ZM85.4694 57.008C85.4694 58.16 85.6294 59.28 85.9494 60.368C86.2694 61.424 86.7494 62.384 87.3894 63.248C88.0294 64.08 88.8294 64.752 89.7894 65.264C90.7814 65.744 91.9494 65.984 93.2934 65.984C94.6374 65.984 95.8054 65.728 96.7974 65.216C97.7894 64.704 98.5894 64.016 99.1974 63.152C99.8374 62.256 100.301 61.28 100.589 60.224C100.909 59.136 101.069 58.032 101.069 56.912C101.069 55.76 100.909 54.656 100.589 53.6C100.269 52.544 99.7894 51.6 99.1494 50.768C98.5094 49.904 97.6934 49.232 96.7014 48.752C95.7094 48.272 94.5574 48.032 93.2454 48.032C91.9014 48.032 90.7334 48.288 89.7414 48.8C88.7814 49.312 87.9814 50 87.3414 50.864C86.7014 51.696 86.2214 52.656 85.9014 53.744C85.6134 54.8 85.4694 55.888 85.4694 57.008ZM147.769 48.08H137.977V74H128.617V48.08H118.777V39.92H147.769V48.08ZM173.258 74.288C170.538 74.288 168.202 73.84 166.25 72.944C164.298 72.048 162.698 70.816 161.45 69.248C160.234 67.68 159.338 65.888 158.762 63.872C158.186 61.824 157.898 59.68 157.898 57.44V39.92H167.258V57.44C167.258 58.56 167.37 59.632 167.594 60.656C167.818 61.68 168.17 62.592 168.65 63.392C169.13 64.192 169.738 64.832 170.474 65.312C171.242 65.76 172.17 65.984 173.258 65.984C174.378 65.984 175.322 65.76 176.09 65.312C176.858 64.832 177.466 64.192 177.914 63.392C178.394 62.56 178.746 61.632 178.97 60.608C179.194 59.584 179.306 58.528 179.306 57.44V39.92H188.666V57.44C188.666 59.808 188.346 62.016 187.706 64.064C187.098 66.112 186.17 67.904 184.922 69.44C183.674 70.976 182.074 72.176 180.122 73.04C178.202 73.872 175.914 74.288 173.258 74.288ZM221.89 51.056C221.89 51.056 221.618 50.896 221.074 50.576C220.53 50.256 219.81 49.904 218.914 49.52C218.018 49.104 217.042 48.736 215.986 48.416C214.93 48.096 213.89 47.936 212.866 47.936C212.066 47.936 211.41 48.064 210.898 48.32C210.386 48.576 210.13 49.008 210.13 49.616C210.13 50.192 210.386 50.656 210.898 51.008C211.41 51.36 212.13 51.68 213.058 51.968C214.018 52.256 215.154 52.608 216.466 53.024C218.578 53.664 220.402 54.4 221.938 55.232C223.474 56.064 224.658 57.136 225.49 58.448C226.322 59.728 226.738 61.44 226.738 63.584C226.738 65.632 226.37 67.36 225.634 68.768C224.898 70.144 223.906 71.248 222.658 72.08C221.41 72.912 220.018 73.52 218.482 73.904C216.946 74.256 215.378 74.432 213.778 74.432C212.146 74.432 210.434 74.272 208.642 73.952C206.882 73.6 205.17 73.136 203.506 72.56C201.842 71.952 200.322 71.248 198.946 70.448L202.978 62.24C202.978 62.24 203.298 62.432 203.938 62.816C204.578 63.2 205.426 63.632 206.482 64.112C207.538 64.592 208.706 65.024 209.986 65.408C211.298 65.792 212.61 65.984 213.922 65.984C214.946 65.984 215.65 65.856 216.034 65.6C216.45 65.312 216.658 64.944 216.658 64.496C216.658 63.824 216.306 63.312 215.602 62.96C214.898 62.576 213.97 62.224 212.818 61.904C211.698 61.552 210.45 61.152 209.074 60.704C207.09 60.032 205.458 59.28 204.178 58.448C202.898 57.584 201.954 56.576 201.346 55.424C200.738 54.24 200.434 52.816 200.434 51.152C200.434 48.624 201.026 46.512 202.21 44.816C203.394 43.12 204.946 41.84 206.866 40.976C208.818 40.08 210.914 39.632 213.154 39.632C214.818 39.632 216.418 39.84 217.954 40.256C219.522 40.64 220.978 41.12 222.322 41.696C223.698 42.272 224.898 42.816 225.922 43.328L221.89 51.056Z" fill="url(#paint0_linear_44_350)"/>
<path d="M50.8625 85.92H61.3265L72.1745 120H62.6705L60.6065 113.328H51.5345L49.5185 120H39.9665L50.8625 85.92ZM59.1185 107.088L56.0945 95.088L52.9265 107.088H59.1185ZM107.982 120V102.048L102.27 114.672H97.2781L91.5661 102.048V120H82.2061V85.92H92.4301L99.7741 101.952L107.166 85.92H117.342V120H107.982ZM130.375 120V85.92H139.735V120H130.375ZM150.937 102.672C150.937 100.592 151.321 98.56 152.089 96.576C152.889 94.56 154.041 92.736 155.545 91.104C157.049 89.472 158.873 88.176 161.017 87.216C163.193 86.224 165.641 85.728 168.361 85.728C171.625 85.728 174.473 86.416 176.905 87.792C179.337 89.136 181.145 90.928 182.329 93.168L175.177 98.256C174.761 97.136 174.153 96.272 173.353 95.664C172.585 95.056 171.737 94.64 170.809 94.416C169.913 94.16 169.033 94.032 168.169 94.032C166.825 94.032 165.657 94.304 164.665 94.848C163.705 95.36 162.905 96.048 162.265 96.912C161.657 97.776 161.193 98.736 160.873 99.792C160.585 100.848 160.441 101.904 160.441 102.96C160.441 104.144 160.617 105.28 160.969 106.368C161.321 107.456 161.833 108.432 162.505 109.296C163.177 110.128 163.993 110.784 164.953 111.264C165.945 111.744 167.049 111.984 168.265 111.984C169.129 111.984 170.009 111.856 170.905 111.6C171.801 111.312 172.617 110.864 173.353 110.256C174.089 109.648 174.649 108.832 175.033 107.808L182.665 112.368C181.993 114.032 180.873 115.456 179.305 116.64C177.737 117.824 175.961 118.736 173.977 119.376C171.993 119.984 170.025 120.288 168.073 120.288C165.545 120.288 163.225 119.792 161.113 118.8C159.033 117.776 157.225 116.432 155.689 114.768C154.185 113.072 153.017 111.184 152.185 109.104C151.353 106.992 150.937 104.848 150.937 102.672ZM193.197 120V85.92H202.557V120H193.197ZM215.631 120V85.92H224.991V120H215.631Z" fill="url(#paint1_linear_44_350)"/>
<defs>
<linearGradient id="paint0_linear_44_350" x1="123.062" y1="80.158" x2="202.139" y2="4.4495" gradientUnits="userSpaceOnUse">
<stop stop-color="#57CF85"/>
<stop offset="1" stop-color="#3FC6D8"/>
</linearGradient>
<linearGradient id="paint1_linear_44_350" x1="123.062" y1="126.158" x2="202.139" y2="50.4495" gradientUnits="userSpaceOnUse">
<stop stop-color="#57CF85"/>
<stop offset="1" stop-color="#3FC6D8"/>
</linearGradient>
</defs>
</svg>
