<svg width="128" height="128" viewBox="0 0 128 128" fill="none" xmlns="http://www.w3.org/2000/svg">
<path d="M126.725 38.4002C126.725 38.4002 125.475 29.5752 121.625 25.7002C116.75 20.6002 111.3 20.5752 108.8 20.2752C90.9 18.9752 64.025 18.9752 64.025 18.9752H63.975C63.975 18.9752 37.1 18.9752 19.2 20.2752C16.7 20.5752 11.25 20.6002 6.375 25.7002C2.525 29.5752 1.3 38.4002 1.3 38.4002C1.3 38.4002 0 48.7752 0 59.1252V68.8252C0 79.1752 1.275 89.5502 1.275 89.5502C1.275 89.5502 2.525 98.3752 6.35 102.25C11.225 107.35 17.625 107.175 20.475 107.725C30.725 108.7 64 109 64 109C64 109 90.9 108.95 108.8 107.675C111.3 107.375 116.75 107.35 121.625 102.25C125.475 98.3752 126.725 89.5502 126.725 89.5502C126.725 89.5502 128 79.2002 128 68.8252V59.1252C128 48.7752 126.725 38.4002 126.725 38.4002ZM50.775 80.6002V44.6252L85.35 62.6752L50.775 80.6002Z" fill="white"/>
</svg>
