<svg width="64" height="64" viewBox="0 0 64 64" fill="none" xmlns="http://www.w3.org/2000/svg">
<path d="M31.9021 0C14.2834 0 0 14.283 0 31.9017C0 49.5211 14.2834 63.803 31.9021 63.803C49.5227 63.803 63.8046 49.5211 63.8046 31.9017C63.8046 14.2842 49.5227 0.0015238 31.9017 0.0015238L31.9021 0ZM46.5322 46.0114C45.9608 46.9486 44.7341 47.2457 43.797 46.6705C36.3067 42.0952 26.8773 41.059 15.7726 43.5962C14.7025 43.84 13.6358 43.1695 13.392 42.099C13.147 41.0286 13.8149 39.9619 14.8876 39.7181C27.04 36.9406 37.464 38.1371 45.8731 43.2762C46.8103 43.8514 47.1074 45.0743 46.5322 46.0114ZM50.4369 37.3238C49.7169 38.4952 48.1855 38.8648 47.016 38.1448C38.4408 32.8728 25.3691 31.3463 15.2263 34.4251C13.9109 34.8225 12.5215 34.0811 12.1223 32.768C11.7261 31.4526 12.4678 30.0659 13.781 29.6659C25.3669 26.1505 39.7703 27.8533 49.6179 33.9048C50.7874 34.6248 51.1569 36.1558 50.4369 37.3238ZM50.7722 28.2785C40.4903 22.1714 23.5265 21.6099 13.7097 24.5893C12.1333 25.0674 10.4663 24.1775 9.98857 22.6011C9.51086 21.024 10.4 19.3581 11.9775 18.8789C23.2465 15.4579 41.9798 16.1189 53.8175 23.1463C55.2385 23.9878 55.7032 25.819 54.8613 27.235C54.0232 28.653 52.187 29.1204 50.7737 28.2785H50.7722Z" fill="white"/>
</svg>
