<svg width="128" height="128" viewBox="0 0 128 128" fill="none" xmlns="http://www.w3.org/2000/svg">
<g clip-path="url(#clip0_94_196)">
<path fill-rule="evenodd" clip-rule="evenodd" d="M128 64C128 99.3462 99.3462 128 64 128C28.6538 128 0 99.3462 0 64C0 28.6538 28.6538 0 64 0C99.3462 0 128 28.6538 128 64ZM66.2935 47.2476C60.0685 49.8368 47.6274 55.1957 28.9701 63.3244C25.9404 64.5292 24.3534 65.7078 24.2089 66.8603C23.9647 68.808 26.4038 69.5749 29.7252 70.6193C30.177 70.7614 30.6451 70.9086 31.125 71.0646C34.3927 72.1268 38.7884 73.3695 41.0735 73.4188C43.1464 73.4636 45.4599 72.6091 48.0141 70.8551C65.4462 59.088 74.4447 53.1403 75.0097 53.0121C75.4082 52.9216 75.9605 52.8079 76.3347 53.1405C76.709 53.4731 76.6722 54.103 76.6325 54.272C76.3909 55.3021 66.8167 64.2032 61.862 68.8095C60.3174 70.2455 59.2217 71.2641 58.9978 71.4967C58.496 72.0178 57.9847 72.5108 57.4932 72.9845C54.4574 75.9111 52.1809 78.1057 57.6193 81.6895C60.2328 83.4118 62.3241 84.836 64.4104 86.2568C66.6889 87.8085 68.9615 89.3561 71.9019 91.2836C72.6511 91.7746 73.3666 92.2847 74.0634 92.7815C76.7151 94.6719 79.0973 96.3702 82.0405 96.0994C83.7506 95.942 85.5171 94.3339 86.4143 89.5379C88.5345 78.2034 92.702 53.6451 93.6652 43.5252C93.7496 42.6386 93.6434 41.5038 93.5581 41.0057C93.4729 40.5076 93.2948 39.7979 92.6473 39.2725C91.8805 38.6503 90.6967 38.5191 90.1673 38.5284C87.7601 38.5709 84.067 39.855 66.2935 47.2476Z" fill="white"/>
</g>
<defs>
<clipPath id="clip0_94_196">
<rect width="128" height="128" fill="white"/>
</clipPath>
</defs>
</svg>
