<svg width="128" height="128" viewBox="0 0 128 128" fill="none" xmlns="http://www.w3.org/2000/svg">
<g clip-path="url(#clip0_94_188)">
<path d="M116.224 99.7509C114.288 104.223 111.997 108.339 109.342 112.124C105.723 117.283 102.76 120.854 100.477 122.838C96.9373 126.093 93.1449 127.76 89.0838 127.855C86.1683 127.855 82.6523 127.025 78.5596 125.342C74.4535 123.667 70.68 122.838 67.2296 122.838C63.611 122.838 59.73 123.667 55.5788 125.342C51.4213 127.025 48.0721 127.902 45.5114 127.989C41.617 128.155 37.7353 126.44 33.8606 122.838C31.3876 120.681 28.2944 116.983 24.5888 111.745C20.6131 106.151 17.3444 99.664 14.7837 92.2686C12.0413 84.2807 10.6665 76.5457 10.6665 69.0571C10.6665 60.479 12.5201 53.0805 16.2327 46.8806C19.1506 41.9006 23.0323 37.9722 27.8906 35.0883C32.749 32.2045 37.9984 30.7349 43.6515 30.6409C46.7448 30.6409 50.8011 31.5977 55.842 33.4781C60.8686 35.3649 64.0961 36.3217 65.5112 36.3217C66.5691 36.3217 70.1546 35.2029 76.2328 32.9725C81.9808 30.904 86.832 30.0475 90.8062 30.3849C101.575 31.254 109.666 35.4992 115.046 43.1474C105.415 48.983 100.651 57.1566 100.746 67.642C100.833 75.8093 103.795 82.6057 109.618 88.0021C112.257 90.5067 115.204 92.4425 118.483 93.8172C117.772 95.8794 117.022 97.8546 116.224 99.7509V99.7509ZM91.5252 2.56073C91.5252 8.96219 89.1865 14.9392 84.5249 20.4715C78.8994 27.0483 72.0951 30.8487 64.7163 30.249C64.6223 29.481 64.5678 28.6727 64.5678 27.8234C64.5678 21.678 67.2431 15.1012 71.9939 9.72377C74.3658 7.00109 77.3824 4.73722 81.0405 2.93128C84.6908 1.15229 88.1435 0.168475 91.3908 0C91.4857 0.855776 91.5252 1.71161 91.5252 2.56065V2.56073Z" fill="white"/>
</g>
<defs>
<clipPath id="clip0_94_188">
<rect width="128" height="128" fill="white"/>
</clipPath>
</defs>
</svg>
