<svg width="128" height="128" viewBox="0 0 128 128" fill="none" xmlns="http://www.w3.org/2000/svg">
<path d="M127.537 93.1073C126.655 90.6886 124.955 89.3811 123.027 88.3352C122.667 88.1391 122.34 87.943 122.046 87.8122C121.458 87.5181 120.869 87.2239 120.281 86.9297C114.267 83.7265 109.56 79.7388 106.324 74.9667C105.409 73.6266 104.592 72.1884 103.938 70.7175C103.644 69.9331 103.677 69.4755 103.873 69.0506C104.069 68.7237 104.33 68.4622 104.657 68.2334C105.703 67.547 106.749 66.8606 107.468 66.403C108.743 65.5532 109.789 64.8995 110.443 64.4419C112.894 62.7095 114.626 60.8791 115.705 58.8199C117.241 55.9436 117.437 52.5769 116.261 49.5371C114.626 45.2226 110.573 42.5751 105.638 42.5751C104.592 42.5751 103.579 42.6731 102.533 42.9019C102.271 42.9673 101.977 43.0327 101.715 43.098C101.748 40.1563 101.683 37.0512 101.421 33.9787C100.506 23.2251 96.7145 17.6031 92.7922 13.1252C90.2754 10.3142 87.3337 7.92811 84.0324 6.06502C78.0836 2.6657 71.3177 0.93335 63.9634 0.93335C56.6091 0.93335 49.8758 2.6657 43.927 6.06502C40.6257 7.92811 37.684 10.3142 35.1672 13.1252C31.2449 17.6031 27.486 23.2578 26.5381 33.9787C26.2766 37.0512 26.2112 40.1563 26.2439 43.098C25.9824 43.0327 25.721 42.9673 25.4268 42.9019C24.4135 42.6731 23.3676 42.5751 22.3543 42.5751C17.4188 42.5751 13.3657 45.2553 11.7314 49.5371C10.5548 52.5769 10.7509 55.9436 12.2871 58.8199C13.3657 60.8791 15.0981 62.7095 17.5495 64.4419C18.2032 64.8995 19.2165 65.5532 20.5239 66.403C21.2103 66.8606 22.2236 67.5143 23.2368 68.1681C23.5964 68.3969 23.8906 68.691 24.1194 69.0506C24.3155 69.4755 24.3482 69.9331 24.0213 70.7829C23.3676 72.2211 22.5831 73.6266 21.6679 74.934C18.4974 79.5754 13.9214 83.5304 8.10332 86.7009C5.03085 88.3352 1.82764 89.4138 0.454837 93.1073C-0.558423 95.8856 0.0952934 99.0235 2.67747 101.704C3.62536 102.684 4.73668 103.534 5.94605 104.188C8.46286 105.561 11.1431 106.639 13.9541 107.391C14.5424 107.554 15.0654 107.783 15.5557 108.11C16.5036 108.927 16.3728 110.169 17.6149 112C18.2359 112.948 19.0531 113.765 19.9683 114.418C22.6158 116.249 25.5902 116.347 28.7281 116.478C31.5717 116.576 34.7749 116.706 38.4684 117.916C40.0047 118.406 41.5736 119.387 43.404 120.531C47.8166 123.244 53.8308 126.937 63.9307 126.937C74.0306 126.937 80.0775 123.211 84.5227 120.498C86.3531 119.387 87.9221 118.406 89.3929 117.916C93.0537 116.706 96.2896 116.576 99.1333 116.478C102.271 116.347 105.246 116.249 107.893 114.418C109.004 113.634 109.92 112.653 110.573 111.477C111.489 109.941 111.456 108.862 112.306 108.11C112.763 107.783 113.286 107.554 113.809 107.424C116.62 106.672 119.366 105.593 121.915 104.188C123.19 103.501 124.367 102.586 125.347 101.508L125.38 101.475C127.929 98.86 128.551 95.7876 127.537 93.1073ZM118.581 97.9121C113.123 100.919 109.462 100.592 106.651 102.423C104.232 103.959 105.67 107.293 103.938 108.502C101.781 109.973 95.4398 108.404 87.2683 111.117C80.5024 113.34 76.2205 119.779 64.0614 119.779C51.9023 119.779 47.7185 113.373 40.8545 111.117C32.683 108.404 26.342 110.006 24.1847 108.502C22.4524 107.293 23.8579 103.959 21.4718 102.423C18.6281 100.592 15 100.919 9.54149 97.9121C6.04411 95.9837 8.03794 94.807 9.18195 94.2513C28.9895 84.6744 32.1601 69.8677 32.2908 68.7564C32.4542 67.4163 32.6504 66.3703 31.1795 65.0302C29.774 63.7228 23.4983 59.8332 21.7333 58.6238C18.8569 56.5973 17.5822 54.6034 18.5301 52.1193C19.1838 50.4197 20.7854 49.7659 22.4524 49.7659C22.9754 49.7659 23.4983 49.8313 24.0213 49.9294C27.1918 50.6158 30.2643 52.1847 32.0293 52.6423C32.2581 52.7077 32.4542 52.7404 32.683 52.7404C33.6309 52.7404 33.9578 52.2501 33.8924 51.1714C33.6963 47.7067 33.206 40.9735 33.7617 34.6651C34.5134 26.0034 37.2917 21.6888 40.6257 17.8973C42.2273 16.0669 49.7123 8.15691 64.0614 8.15691C78.4105 8.15691 85.8955 16.0342 87.4971 17.8646C90.8311 21.6562 93.6094 25.9707 94.3612 34.6324C94.9168 40.9408 94.4265 47.674 94.1977 51.1387C94.1324 52.2827 94.4592 52.7077 95.4071 52.7077C95.6359 52.7077 95.832 52.675 96.0608 52.6096C97.8259 52.1847 100.898 50.5831 104.069 49.8967C104.592 49.7659 105.115 49.7333 105.638 49.7333C107.305 49.7333 108.906 50.387 109.56 52.0866C110.508 54.5708 109.233 56.5646 106.357 58.5911C104.625 59.8005 98.3488 63.6901 96.9107 64.9975C95.4398 66.3376 95.6359 67.3836 95.7993 68.7237C95.9301 69.835 99.1006 84.6417 118.908 94.2187C120.085 94.7743 122.046 95.9837 118.581 97.9121Z" fill="white"/>
</svg>
