<svg width="128" height="128" viewBox="0 0 128 128" fill="none" xmlns="http://www.w3.org/2000/svg">
<path d="M0 128L8.99731 95.1307C3.44533 85.5093 0.527999 74.6027 0.533332 63.4187C0.549332 28.4533 29.0026 0 63.9625 0C80.9278 0.00533333 96.8531 6.61333 108.832 18.6027C120.805 30.592 127.397 46.528 127.392 63.4773C127.376 98.448 98.9224 126.901 63.9625 126.901C53.3492 126.896 42.8906 124.235 33.6266 119.179L0 128ZM35.1839 107.696C44.1226 113.003 52.6559 116.181 63.9412 116.187C92.9971 116.187 116.666 92.5387 116.682 63.4667C116.693 34.336 93.1358 10.72 63.9839 10.7093C34.9066 10.7093 11.2533 34.3573 11.2426 63.424C11.2373 75.2907 14.7146 84.176 20.5546 93.472L15.2266 112.928L35.1839 107.696ZM95.9145 78.5547C95.5198 77.8933 94.4638 77.4987 92.8745 76.704C91.2905 75.9093 83.4985 72.0747 82.0425 71.5467C80.5918 71.0187 79.5358 70.752 78.4745 72.3413C77.4185 73.9253 74.3785 77.4987 73.4558 78.5547C72.5332 79.6107 71.6052 79.744 70.0212 78.9493C68.4372 78.1547 63.3279 76.4853 57.2745 71.0827C52.5652 66.88 49.3812 61.6907 48.4586 60.1013C47.5359 58.5173 48.3626 57.6587 49.1519 56.8693C49.8666 56.16 50.7359 55.0187 51.5306 54.0907C52.3359 53.1733 52.5972 52.512 53.1305 51.4507C53.6585 50.3947 53.3972 49.4667 52.9972 48.672C52.5972 47.8827 49.4292 40.08 48.1119 36.9067C46.8212 33.8187 45.5146 34.2347 44.5439 34.1867L41.5039 34.1333C40.4479 34.1333 38.7306 34.528 37.2799 36.1173C35.8293 37.7067 31.7333 41.536 31.7333 49.3387C31.7333 57.1413 37.4132 64.6773 38.2026 65.7333C38.9972 66.7893 49.3759 82.8 65.2745 89.664C69.0558 91.296 72.0105 92.272 74.3092 93.0027C78.1065 94.208 81.5625 94.0373 84.2931 93.632C87.3385 93.1787 93.6691 89.7973 94.9918 86.096C96.3145 82.3893 96.3145 79.216 95.9145 78.5547Z" fill="white"/>
</svg>
