<svg width="64" height="64" viewBox="0 0 64 64" fill="none" xmlns="http://www.w3.org/2000/svg">
<g clip-path="url(#clip0_110_294)">
<path d="M32 5.7625C40.55 5.7625 41.5625 5.8 44.925 5.95C48.05 6.0875 49.7375 6.6125 50.8625 7.05C52.35 7.625 53.425 8.325 54.5375 9.4375C55.6625 10.5625 56.35 11.625 56.925 13.1125C57.3625 14.2375 57.8875 15.9375 58.025 19.05C58.175 22.425 58.2125 23.4375 58.2125 31.975C58.2125 40.525 58.175 41.5375 58.025 44.9C57.8875 48.025 57.3625 49.7125 56.925 50.8375C56.35 52.325 55.65 53.4 54.5375 54.5125C53.4125 55.6375 52.35 56.325 50.8625 56.9C49.7375 57.3375 48.0375 57.8625 44.925 58C41.55 58.15 40.5375 58.1875 32 58.1875C23.45 58.1875 22.4375 58.15 19.075 58C15.95 57.8625 14.2625 57.3375 13.1375 56.9C11.65 56.325 10.575 55.625 9.4625 54.5125C8.3375 53.3875 7.65 52.325 7.075 50.8375C6.6375 49.7125 6.1125 48.0125 5.975 44.9C5.825 41.525 5.7875 40.5125 5.7875 31.975C5.7875 23.425 5.825 22.4125 5.975 19.05C6.1125 15.925 6.6375 14.2375 7.075 13.1125C7.65 11.625 8.35 10.55 9.4625 9.4375C10.5875 8.3125 11.65 7.625 13.1375 7.05C14.2625 6.6125 15.9625 6.0875 19.075 5.95C22.4375 5.8 23.45 5.7625 32 5.7625ZM32 0C23.3125 0 22.225 0.0375 18.8125 0.1875C15.4125 0.3375 13.075 0.8875 11.05 1.675C8.9375 2.5 7.15 3.5875 5.375 5.375C3.5875 7.15 2.5 8.9375 1.675 11.0375C0.8875 13.075 0.3375 15.4 0.1875 18.8C0.0375 22.225 0 23.3125 0 32C0 40.6875 0.0375 41.775 0.1875 45.1875C0.3375 48.5875 0.8875 50.925 1.675 52.95C2.5 55.0625 3.5875 56.85 5.375 58.625C7.15 60.4 8.9375 61.5 11.0375 62.3125C13.075 63.1 15.4 63.65 18.8 63.8C22.2125 63.95 23.3 63.9875 31.9875 63.9875C40.675 63.9875 41.7625 63.95 45.175 63.8C48.575 63.65 50.9125 63.1 52.9375 62.3125C55.0375 61.5 56.825 60.4 58.6 58.625C60.375 56.85 61.475 55.0625 62.2875 52.9625C63.075 50.925 63.625 48.6 63.775 45.2C63.925 41.7875 63.9625 40.7 63.9625 32.0125C63.9625 23.325 63.925 22.2375 63.775 18.825C63.625 15.425 63.075 13.0875 62.2875 11.0625C61.5 8.9375 60.4125 7.15 58.625 5.375C56.85 3.6 55.0625 2.5 52.9625 1.6875C50.925 0.9 48.6 0.35 45.2 0.2C41.775 0.0375 40.6875 0 32 0Z" fill="white"/>
<path d="M32 15.5625C22.925 15.5625 15.5625 22.925 15.5625 32C15.5625 41.075 22.925 48.4375 32 48.4375C41.075 48.4375 48.4375 41.075 48.4375 32C48.4375 22.925 41.075 15.5625 32 15.5625ZM32 42.6625C26.1125 42.6625 21.3375 37.8875 21.3375 32C21.3375 26.1125 26.1125 21.3375 32 21.3375C37.8875 21.3375 42.6625 26.1125 42.6625 32C42.6625 37.8875 37.8875 42.6625 32 42.6625Z" fill="white"/>
<path d="M52.925 14.9125C52.925 17.0375 51.2 18.75 49.0875 18.75C46.9625 18.75 45.25 17.025 45.25 14.9125C45.25 12.7875 46.975 11.075 49.0875 11.075C51.2 11.075 52.925 12.8 52.925 14.9125Z" fill="white"/>
</g>
<defs>
<clipPath id="clip0_110_294">
<rect width="64" height="64" fill="white"/>
</clipPath>
</defs>
</svg>
