<svg width="64" height="64" viewBox="0 0 64 64" fill="none" xmlns="http://www.w3.org/2000/svg">
<path d="M31.9995 26.1816V38.5744H49.2213C48.465 42.5598 46.1957 45.9345 42.7921 48.2036L53.1775 56.2618C59.2284 50.6765 62.7193 42.4728 62.7193 32.7274C62.7193 30.4584 62.5158 28.2763 62.1375 26.182L31.9995 26.1816Z" fill="white"/>
<path d="M14.0658 38.0908L11.7235 39.8838L3.43243 46.3419C8.69787 56.7854 19.4898 64.0001 31.9988 64.0001C40.6386 64.0001 47.8821 61.1492 53.1768 56.262L42.7914 48.2038C39.9405 50.1238 36.3041 51.2875 31.9988 51.2875C23.6788 51.2875 16.61 45.673 14.0789 38.1093L14.0658 38.0908Z" fill="white"/>
<path d="M3.43248 17.6582C1.25078 21.9635 0 26.8217 0 31.9998C0 37.1779 1.25078 42.0362 3.43248 46.3415C3.43248 46.3704 14.0799 38.0796 14.0799 38.0796C13.4399 36.1596 13.0616 34.1234 13.0616 31.9995C13.0616 29.8756 13.4399 27.8393 14.0799 25.9194L3.43248 17.6582Z" fill="white"/>
<path d="M31.9995 12.7418C36.7122 12.7418 40.9013 14.3709 44.2467 17.5127L53.4103 8.3492C47.8539 3.17111 40.6396 0 31.9995 0C19.4905 0 8.69788 7.18544 3.43243 17.6582L14.0796 25.92C16.6103 18.3563 23.6795 12.7418 31.9995 12.7418Z" fill="white"/>
</svg>
