<svg width="64" height="64" viewBox="0 0 64 64" fill="none" xmlns="http://www.w3.org/2000/svg">
<g clip-path="url(#clip0_110_296)">
<path d="M32 0C14.327 0 0 14.327 0 32C0 47.0067 10.3322 59.5994 24.2701 63.0579V41.7792H17.6717V32H24.2701V27.7862C24.2701 16.8947 29.1994 11.8464 39.8925 11.8464C41.92 11.8464 45.4182 12.2445 46.8493 12.6413V21.5053C46.0941 21.4259 44.7821 21.3862 43.1526 21.3862C37.9059 21.3862 35.8784 23.3741 35.8784 28.5414V32H46.3309L44.535 41.7792H35.8784V63.7658C51.7235 61.8522 64.0013 48.361 64.0013 32C64 14.327 49.673 0 32 0Z" fill="white"/>
</g>
<defs>
<clipPath id="clip0_110_296">
<rect width="64" height="64" fill="white"/>
</clipPath>
</defs>
</svg>
