<svg width="128" height="128" viewBox="0 0 128 128" fill="none" xmlns="http://www.w3.org/2000/svg">
<g clip-path="url(#clip0_94_197)">
<path fill-rule="evenodd" clip-rule="evenodd" d="M8.99768 8.99768C0 17.9954 0 32.4768 0 61.44V66.56C0 95.5232 0 110.005 8.99768 119.002C17.9954 128 32.4768 128 61.44 128H66.56C95.5232 128 110.005 128 119.002 119.002C128 110.005 128 95.5232 128 66.56V61.44C128 32.4768 128 17.9954 119.002 8.99768C110.005 0 95.5232 0 66.56 0H61.44C32.4768 0 17.9954 0 8.99768 8.99768ZM21.6003 38.9336C22.2937 72.2136 38.9336 92.2136 68.1069 92.2136H69.7605V73.1736C80.4805 74.2403 88.5867 82.0803 91.84 92.2136H106.987C102.827 77.0669 91.8931 68.6936 85.0664 65.4936C91.8931 61.5469 101.493 51.9469 103.786 38.9336H90.0261C87.0395 49.4936 78.1872 59.0936 69.7605 60.0003V38.9336H56V75.8403C47.4667 73.7069 36.6936 63.3603 36.2136 38.9336H21.6003Z" fill="white"/>
</g>
<defs>
<clipPath id="clip0_94_197">
<rect width="128" height="128" fill="white"/>
</clipPath>
</defs>
</svg>
