<svg width="128" height="128" viewBox="0 0 128 128" fill="none" xmlns="http://www.w3.org/2000/svg">
<path d="M63.8042 0C28.5669 0 0 28.5661 0 63.8034C0 99.0423 28.5669 127.606 63.8042 127.606C99.0453 127.606 127.609 99.0423 127.609 63.8034C127.609 28.5684 99.0453 0.0030476 63.8034 0.0030476L63.8042 0ZM93.0644 92.0229C91.9215 93.8971 89.4682 94.4914 87.5939 93.341C72.6133 84.1905 53.7547 82.1181 31.5451 87.1924C29.405 87.68 27.2716 86.3391 26.784 84.1981C26.2941 82.0571 27.6297 79.9238 29.7752 79.4362C54.08 73.8811 74.928 76.2743 91.7463 86.5524C93.6206 87.7029 94.2149 90.1486 93.0644 92.0229ZM100.874 74.6476C99.4339 76.9905 96.371 77.7295 94.032 76.2895C76.8815 65.7455 50.7383 62.6926 30.4526 68.8503C27.8217 69.645 25.043 68.1623 24.2446 65.536C23.4522 62.9051 24.9356 60.1318 27.5619 59.3318C50.7337 52.301 79.5406 55.7067 99.2358 67.8095C101.575 69.2495 102.314 72.3116 100.874 74.6476ZM101.544 56.557C80.9806 44.3429 47.053 43.2198 27.4194 49.1787C24.2667 50.1349 20.9326 48.355 19.9771 45.2023C19.0217 42.048 20.8 38.7162 23.955 37.7577C46.4929 30.9158 83.9596 32.2377 107.635 46.2926C110.477 47.9756 111.406 51.6381 109.723 54.4701C108.046 57.3059 104.374 58.2408 101.547 56.557H101.544Z" fill="white"/>
</svg>
