<svg width="64" height="64" viewBox="0 0 64 64" fill="none" xmlns="http://www.w3.org/2000/svg">
<g clip-path="url(#clip0_110_289)">
<path d="M32 0C14.325 0 0 14.325 0 32C0 45.5625 8.4375 57.1375 20.3375 61.8C20.0625 59.2625 19.8 55.3875 20.45 52.625C21.0375 50.125 24.2 36.725 24.2 36.725C24.2 36.725 23.2375 34.8125 23.2375 31.975C23.2375 27.525 25.8125 24.2 29.025 24.2C31.75 24.2 33.075 26.25 33.075 28.7125C33.075 31.4625 31.325 35.5625 30.425 39.3625C29.675 42.55 32.025 45.15 35.1625 45.15C40.85 45.15 45.225 39.15 45.225 30.5C45.225 22.8375 39.725 17.475 31.8625 17.475C22.7625 17.475 17.4125 24.3 17.4125 31.3625C17.4125 34.1125 18.475 37.0625 19.8 38.6625C20.0625 38.975 20.1 39.2625 20.025 39.575C19.7875 40.5875 19.2375 42.7625 19.1375 43.2C19 43.7875 18.675 43.9125 18.0625 43.625C14.0625 41.7625 11.5625 35.925 11.5625 31.225C11.5625 21.125 18.9 11.8625 32.7 11.8625C43.8 11.8625 52.425 19.775 52.425 30.35C52.425 41.375 45.475 50.25 35.825 50.25C32.5875 50.25 29.5375 48.5625 28.4875 46.575C28.4875 46.575 26.8875 52.6875 26.5 54.1875C25.775 56.9625 23.825 60.45 22.525 62.575C25.525 63.5 28.7 64 32 64C49.675 64 64 49.675 64 32C64 14.325 49.675 0 32 0Z" fill="white"/>
</g>
<defs>
<clipPath id="clip0_110_289">
<rect width="64" height="64" fill="white"/>
</clipPath>
</defs>
</svg>
