<svg width="64" height="64" viewBox="0 0 64 64" fill="none" xmlns="http://www.w3.org/2000/svg">
<g clip-path="url(#clip0_110_290)">
<path d="M58.1119 49.8754C57.144 52.1114 55.9984 54.1696 54.671 56.0619C52.8617 58.6416 51.3802 60.4272 50.2385 61.4188C48.4687 63.0464 46.5725 63.88 44.5419 63.9274C43.0842 63.9274 41.3262 63.5126 39.2799 62.6711C37.2268 61.8336 35.3401 61.4188 33.6149 61.4188C31.8056 61.4188 29.8651 61.8336 27.7895 62.6711C25.7107 63.5126 24.0361 63.9511 22.7558 63.9945C20.8086 64.0775 18.8677 63.2202 16.9304 61.4188C15.6939 60.3403 14.1473 58.4915 12.2945 55.8723C10.3066 53.0754 8.67227 49.832 7.39191 46.1343C6.0207 42.1404 5.33331 38.2728 5.33331 34.5285C5.33331 30.2395 6.2601 26.5402 8.11643 23.4403C9.57535 20.9503 11.5162 18.9861 13.9454 17.5442C16.3745 16.1022 18.9992 15.3674 21.8258 15.3204C23.3724 15.3204 25.4006 15.7988 27.921 16.7391C30.4343 17.6824 32.0481 18.1608 32.7556 18.1608C33.2846 18.1608 35.0773 17.6015 38.1165 16.4862C40.9904 15.452 43.416 15.0238 45.4031 15.1924C50.7877 15.627 54.833 17.7496 57.5233 21.5737C52.7076 24.4915 50.3255 28.5783 50.3729 33.821C50.4163 37.9046 51.8977 41.3029 54.8093 44.0011C56.1287 45.2534 57.6023 46.2212 59.2417 46.9086C58.8862 47.9397 58.5109 48.9273 58.1119 49.8754V49.8754ZM45.7626 1.28036C45.7626 4.4811 44.5933 7.46961 42.2625 10.2357C39.4498 13.5241 36.0476 15.4243 32.3582 15.1245C32.3112 14.7405 32.284 14.3364 32.284 13.9117C32.284 10.839 33.6216 7.55059 35.997 4.86189C37.183 3.50054 38.6913 2.36861 40.5203 1.46564C42.3455 0.576147 44.0718 0.0842374 45.6955 0C45.7429 0.427888 45.7626 0.855803 45.7626 1.28032V1.28036Z" fill="white"/>
</g>
<defs>
<clipPath id="clip0_110_290">
<rect width="64" height="64" fill="white"/>
</clipPath>
</defs>
</svg>
