<svg width="128" height="128" viewBox="0 0 128 128" fill="none" xmlns="http://www.w3.org/2000/svg">
<path d="M108.357 22.1632C100.199 18.4198 91.4506 15.6618 82.3035 14.0822C82.1369 14.0518 81.9705 14.1279 81.8847 14.2803C80.7595 16.2815 79.5132 18.8921 78.6405 20.9441C68.8022 19.4712 59.0143 19.4712 49.3777 20.9441C48.5048 18.8465 47.2133 16.2815 46.0831 14.2803C45.9973 14.133 45.8308 14.0568 45.6643 14.0822C36.5222 15.6568 27.7737 18.4147 19.6103 22.1632C19.5396 22.1936 19.4791 22.2445 19.4389 22.3104C2.84476 47.1017 -1.70107 71.2836 0.528961 95.1657C0.539051 95.2825 0.604639 95.3943 0.695456 95.4653C11.6438 103.506 22.2491 108.387 32.6575 111.622C32.8241 111.673 33.0006 111.612 33.1066 111.475C35.5687 108.112 37.7634 104.567 39.6452 100.839C39.7563 100.621 39.6503 100.362 39.4233 100.275C35.942 98.9547 32.6272 97.3446 29.4386 95.5162C29.1863 95.3689 29.1662 95.0081 29.3982 94.8354C30.0692 94.3326 30.7404 93.8095 31.3811 93.2812C31.497 93.1848 31.6585 93.1644 31.7948 93.2253C52.7429 102.789 75.4216 102.789 96.1224 93.2253C96.2587 93.1594 96.4202 93.1797 96.5412 93.2762C97.1821 93.8044 97.8531 94.3326 98.5292 94.8354C98.7612 95.0081 98.7461 95.3689 98.4938 95.5162C95.3052 97.3801 91.9904 98.9547 88.5041 100.27C88.2771 100.357 88.1761 100.621 88.2872 100.839C90.2094 104.562 92.4041 108.107 94.8208 111.47C94.9217 111.612 95.1033 111.673 95.2699 111.622C105.729 108.387 116.334 103.506 127.282 95.4653C127.378 95.3943 127.439 95.2876 127.449 95.1708C130.118 67.5604 122.979 43.5768 108.524 22.3155C108.488 22.2445 108.428 22.1936 108.357 22.1632ZM42.7735 80.624C36.4667 80.624 31.27 74.8339 31.27 67.723C31.27 60.6122 36.3659 54.8221 42.7735 54.8221C49.2313 54.8221 54.3776 60.663 54.2767 67.723C54.2767 74.8339 49.1808 80.624 42.7735 80.624ZM85.3053 80.624C78.9987 80.624 73.8021 74.8339 73.8021 67.723C73.8021 60.6122 78.8978 54.8221 85.3053 54.8221C91.7634 54.8221 96.9095 60.663 96.8087 67.723C96.8087 74.8339 91.7634 80.624 85.3053 80.624Z" fill="white"/>
</svg>
