<svg width="128" height="128" viewBox="0 0 128 128" fill="none" xmlns="http://www.w3.org/2000/svg">
<path d="M63.999 52.3635V77.149H98.4426C96.9301 85.1199 92.3913 91.8692 85.5842 96.4073L106.355 112.524C118.457 101.353 125.439 84.9458 125.439 65.455C125.439 60.9169 125.032 56.5529 124.275 52.3642L63.999 52.3635Z" fill="white"/>
<path d="M28.1314 76.1815L23.4468 79.7675L6.86475 92.6836C17.3956 113.571 38.9795 128 63.9975 128C81.277 128 95.7641 122.298 106.353 112.524L85.5826 96.4074C79.8808 100.247 72.608 102.575 63.9975 102.575C47.3576 102.575 33.2198 91.3458 28.1576 76.2184L28.1314 76.1815Z" fill="white"/>
<path d="M6.86496 35.3163C2.50156 43.9269 0 53.6434 0 63.9996C0 74.3558 2.50156 84.0723 6.86496 92.6829C6.86496 92.7406 28.1599 76.1592 28.1599 76.1592C26.8799 72.3192 26.1233 68.2468 26.1233 63.9989C26.1233 59.7511 26.8799 55.6786 28.1599 51.8386L6.86496 35.3163Z" fill="white"/>
<path d="M63.9988 25.4836C73.4244 25.4836 81.8024 28.7417 88.4933 35.0254L106.82 16.6984C95.7076 6.34221 81.279 0 63.9988 0C38.9808 0 17.3956 14.3709 6.86475 35.3164L28.159 51.8401C33.2205 36.7126 47.3589 25.4836 63.9988 25.4836Z" fill="white"/>
</svg>
