<svg width="64" height="64" viewBox="0 0 64 64" fill="none" xmlns="http://www.w3.org/2000/svg">
<path d="M54.1787 11.0816C50.0996 9.20993 45.7253 7.83095 41.1517 7.04115C41.0684 7.02591 40.9852 7.064 40.9423 7.14019C40.3798 8.14077 39.7566 9.44609 39.3202 10.4721C34.4011 9.73563 29.5072 9.73563 24.6889 10.4721C24.2524 9.42329 23.6066 8.14077 23.0415 7.14019C22.9986 7.06655 22.9154 7.02845 22.8321 7.04115C18.2611 7.82843 13.8868 9.2074 9.80516 11.0816C9.76982 11.0968 9.73954 11.1223 9.71944 11.1553C1.42238 23.5509 -0.850534 35.6418 0.26448 47.5829C0.269526 47.6413 0.30232 47.6972 0.347728 47.7327C5.82189 51.7528 11.1246 54.1934 16.3287 55.811C16.412 55.8365 16.5003 55.806 16.5533 55.7374C17.7843 54.0563 18.8817 52.2836 19.8226 50.4195C19.8781 50.3104 19.8251 50.1808 19.7116 50.1377C17.971 49.4774 16.3136 48.6723 14.7193 47.7581C14.5932 47.6845 14.5831 47.5041 14.6991 47.4177C15.0346 47.1663 15.3702 46.9048 15.6905 46.6406C15.7485 46.5924 15.8293 46.5822 15.8974 46.6127C26.3714 51.3948 37.7108 51.3948 48.0612 46.6127C48.1294 46.5797 48.2101 46.5899 48.2706 46.6381C48.5911 46.9022 48.9266 47.1663 49.2646 47.4177C49.3806 47.5041 49.373 47.6845 49.2469 47.7581C47.6526 48.6901 45.9952 49.4774 44.252 50.1351C44.1385 50.1783 44.0881 50.3104 44.1436 50.4195C45.1047 52.281 46.2021 54.0536 47.4104 55.7349C47.4609 55.806 47.5516 55.8365 47.6349 55.811C52.8644 54.1934 58.167 51.7528 63.6411 47.7327C63.6891 47.6972 63.7194 47.6438 63.7244 47.5854C65.0589 33.7802 61.4893 21.7884 54.2619 11.1578C54.2442 11.1223 54.214 11.0968 54.1787 11.0816ZM21.3867 40.312C18.2333 40.312 15.635 37.417 15.635 33.8616C15.635 30.3061 18.1829 27.4111 21.3867 27.4111C24.6157 27.4111 27.1888 30.3315 27.1383 33.8616C27.1383 37.417 24.5904 40.312 21.3867 40.312ZM42.6527 40.312C39.4994 40.312 36.901 37.417 36.901 33.8616C36.901 30.3061 39.4489 27.4111 42.6527 27.4111C45.8817 27.4111 48.4548 30.3315 48.4044 33.8616C48.4044 37.417 45.8817 40.312 42.6527 40.312Z" fill="white"/>
</svg>
