<svg width="64" height="64" viewBox="0 0 64 64" fill="none" xmlns="http://www.w3.org/2000/svg">
<path d="M0 64L4.49866 47.5653C1.72266 42.7547 0.263999 37.3013 0.266666 31.7093C0.274666 14.2267 14.5013 0 31.9813 0C40.4639 0.00266667 48.4266 3.30667 54.4159 9.30133C60.4025 15.296 63.6985 23.264 63.6959 31.7387C63.6879 49.224 49.4612 63.4507 31.9813 63.4507C26.6746 63.448 21.4453 62.1173 16.8133 59.5893L0 64ZM17.592 53.848C22.0613 56.5013 26.3279 58.0907 31.9706 58.0933C46.4986 58.0933 58.3332 46.2693 58.3412 31.7333C58.3465 17.168 46.5679 5.36 31.9919 5.35467C17.4533 5.35467 5.62665 17.1787 5.62132 31.712C5.61865 37.6453 7.35732 42.088 10.2773 46.736L7.61332 56.464L17.592 53.848ZM47.9572 39.2773C47.7599 38.9467 47.2319 38.7493 46.4372 38.352C45.6452 37.9547 41.7492 36.0373 41.0212 35.7733C40.2959 35.5093 39.7679 35.376 39.2372 36.1707C38.7092 36.9627 37.1893 38.7493 36.7279 39.2773C36.2666 39.8053 35.8026 39.872 35.0106 39.4747C34.2186 39.0773 31.6639 38.2427 28.6373 35.5413C26.2826 33.44 24.6906 30.8453 24.2293 30.0507C23.7679 29.2587 24.1813 28.8293 24.5759 28.4347C24.9333 28.08 25.3679 27.5093 25.7653 27.0453C26.1679 26.5867 26.2986 26.256 26.5653 25.7253C26.8293 25.1973 26.6986 24.7333 26.4986 24.336C26.2986 23.9413 24.7146 20.04 24.0559 18.4533C23.4106 16.9093 22.7573 17.1173 22.272 17.0933L20.752 17.0667C20.224 17.0667 19.3653 17.264 18.64 18.0587C17.9146 18.8533 15.8666 20.768 15.8666 24.6693C15.8666 28.5707 18.7066 32.3387 19.1013 32.8667C19.4986 33.3947 24.6879 41.4 32.6373 44.832C34.5279 45.648 36.0053 46.136 37.1546 46.5013C39.0532 47.104 40.7812 47.0187 42.1466 46.816C43.6692 46.5893 46.8346 44.8987 47.4959 43.048C48.1572 41.1947 48.1572 39.608 47.9572 39.2773Z" fill="white"/>
</svg>
