<svg width="1747" height="832" viewBox="0 0 1747 832" fill="none" xmlns="http://www.w3.org/2000/svg">
<g clip-path="url(#clip0_83_455)">
<path d="M1409.16 698.715C1404.52 690.561 1398.3 683.413 1390.87 677.689C1383.43 671.966 1374.93 667.78 1365.86 665.378C1332.96 656.908 1298.96 653.504 1265.03 655.281C1283.22 565.003 1269.58 493.598 1255.66 451.256C1250.11 433.863 1238.28 419.159 1222.48 410.011C1206.68 400.862 1188.05 397.926 1170.2 401.774C1123.92 412.08 1079.91 430.762 1040.35 456.896C1011.38 397.709 969.188 345.971 917.047 305.674C904.412 296.197 889.043 291.074 873.249 291.074C857.454 291.074 842.085 296.197 829.45 305.674C777.297 345.959 735.109 397.7 706.149 456.896C666.587 430.762 622.58 412.08 576.299 401.774C558.452 397.926 539.811 400.862 524.012 410.011C508.212 419.159 496.386 433.863 490.838 451.256C477.194 493.598 463.549 564.957 481.469 655.281C447.541 653.504 413.539 656.908 380.636 665.378C371.566 667.78 363.067 671.966 355.632 677.689C348.198 683.413 341.979 690.561 337.338 698.715C332.48 707.068 329.336 716.304 328.086 725.885C326.837 735.467 327.508 745.2 330.061 754.519C345.479 811.688 392.825 920.432 536.229 1006.12C679.633 1091.8 805.617 1091.53 873.476 1091.53C941.335 1091.53 1067.55 1091.53 1210.04 1006.12C1353.44 920.432 1400.79 811.688 1416.21 754.519C1418.79 745.215 1419.5 735.489 1418.29 725.909C1417.08 716.328 1413.98 707.083 1409.16 698.715ZM560.062 473.633C560.116 473.407 560.254 473.21 560.449 473.083C560.644 472.957 560.879 472.909 561.108 472.95C603.427 482.51 643.365 500.567 678.496 526.026C662.5 578.354 654.556 632.81 654.936 687.527C654.936 772.757 672.083 842.16 696.37 898.01C661.842 863.453 631.967 824.543 607.499 782.262C525.541 639.545 542.597 527.572 560.062 473.633ZM573.706 943.672C452.406 871.267 413.065 782.49 400.239 735.418C433.705 727.178 468.432 725.373 502.573 730.096C513.97 760.626 527.891 790.154 544.188 818.374C584.206 887.364 636.633 948.366 698.826 998.294C654.848 985.65 612.72 967.286 573.524 943.672H573.706ZM873.249 1011.48C830.814 979.92 727.707 883.092 727.707 687.527C727.707 494.372 829.495 396.771 873.249 363.843C917.002 396.862 1018.79 494.463 1018.79 687.618C1018.79 883.092 915.683 979.92 873.249 1011.48ZM1068 526.026C1103.14 500.583 1143.07 482.542 1185.39 472.996C1185.62 472.955 1185.85 473.002 1186.04 473.129C1186.24 473.256 1186.38 473.452 1186.44 473.678C1203.9 527.572 1220.96 639.545 1139 782.262C1114.55 824.598 1084.67 863.557 1050.13 898.146C1074.41 842.387 1091.56 772.893 1091.56 687.663C1091.95 632.901 1084.01 578.397 1068 526.026ZM1346.26 735.508C1333.66 782.126 1294.41 871.085 1173.02 943.672C1133.82 967.267 1091.69 985.623 1047.72 998.249C1109.91 948.32 1162.34 887.318 1202.35 818.328C1218.65 790.109 1232.57 760.581 1243.97 730.051C1278.1 725.348 1312.81 727.185 1346.26 735.463V735.508Z" fill="url(#paint0_linear_83_455)" fill-opacity="0.25"/>
</g>
<defs>
<linearGradient id="paint0_linear_83_455" x1="809.672" y1="1022.32" x2="1573.97" y2="725.132" gradientUnits="userSpaceOnUse">
<stop stop-color="#57CF85"/>
<stop offset="1" stop-color="#3FC6D8"/>
</linearGradient>
<clipPath id="clip0_83_455">
<rect width="1747" height="832" fill="white"/>
</clipPath>
</defs>
</svg>
