<svg width="12" height="12" viewBox="0 0 12 12" fill="none" xmlns="http://www.w3.org/2000/svg">
<path d="M9.94874 1.40625C9.81857 1.18228 9.62504 1.00184 9.39252 0.887654C9.15999 0.773469 8.89888 0.730645 8.64206 0.764576C8.38525 0.798507 8.14421 0.907677 7.94932 1.07833C7.75443 1.24899 7.6144 1.4735 7.54687 1.72359L6.93749 3.98859L6.33046 1.72359C6.29132 1.55137 6.21783 1.38883 6.11439 1.24568C6.01094 1.10254 5.87967 0.981747 5.72844 0.890536C5.57721 0.799326 5.40912 0.739576 5.23425 0.714863C5.05938 0.69015 4.88132 0.700984 4.71074 0.746716C4.54015 0.792447 4.38055 0.872135 4.24149 0.981008C4.10243 1.08988 3.98677 1.2257 3.90145 1.38033C3.81612 1.53495 3.76288 1.70521 3.74491 1.88091C3.72694 2.0566 3.74461 2.23411 3.79687 2.40281L4.23656 4.04343L3.82734 3.96468C3.54757 3.90711 3.25665 3.94237 2.99874 4.06512C2.74083 4.18787 2.53 4.3914 2.39824 4.64483C2.26649 4.89827 2.22101 5.18776 2.2687 5.46938C2.31639 5.75101 2.45465 6.00939 2.66249 6.20531C2.5313 6.32837 2.42694 6.4772 2.35596 6.64247C2.28497 6.80775 2.2489 6.98591 2.24999 7.16578V7.5C2.24999 8.49456 2.64508 9.44839 3.34834 10.1516C4.0516 10.8549 5.00543 11.25 5.99999 11.25H6.02859C8.08077 11.2345 9.74999 9.53344 9.74999 7.45781V7.30125C9.74962 6.71936 9.5555 6.15416 9.19827 5.69484L10.0781 2.40281C10.1236 2.2364 10.1356 2.06263 10.1134 1.89156C10.0912 1.72049 10.0352 1.55553 9.94874 1.40625ZM4.57546 1.78125C4.63101 1.68465 4.714 1.60673 4.8139 1.55736C4.91381 1.508 5.02612 1.48942 5.13659 1.50399C5.24707 1.51855 5.35073 1.5656 5.43443 1.63916C5.51813 1.71272 5.57809 1.80949 5.60671 1.91718L6.29906 4.50234C6.06422 4.51671 5.83756 4.59393 5.64281 4.72593C5.64058 4.72171 5.63808 4.71764 5.63531 4.71375C5.49543 4.5015 5.29623 4.33506 5.06249 4.23515L4.51968 2.20875C4.50025 2.13734 4.49518 2.06279 4.50476 1.98941C4.51433 1.91603 4.53836 1.84528 4.57546 1.78125ZM3.01171 5.1375C3.02655 5.06475 3.05565 4.99566 3.09732 4.93421C3.13899 4.87276 3.19241 4.82017 3.25451 4.77947C3.31661 4.73877 3.38615 4.71076 3.45912 4.69707C3.53209 4.68338 3.60705 4.68427 3.67968 4.69968L4.65046 4.88718C4.72286 4.90195 4.79164 4.93082 4.85288 4.97217C4.91411 5.01352 4.9666 5.06653 5.00734 5.12817C5.04809 5.1898 5.07629 5.25887 5.09034 5.33141C5.10438 5.40395 5.104 5.47854 5.08921 5.55093C5.07437 5.62368 5.04528 5.69277 5.00361 5.75422C4.96193 5.81567 4.90851 5.86826 4.84641 5.90896C4.78432 5.94966 4.71478 5.97767 4.64181 5.99136C4.56883 6.00506 4.49387 6.00417 4.42124 5.98875L3.44859 5.80125C3.30282 5.77101 3.17498 5.68421 3.09309 5.55988C3.0112 5.43555 2.98194 5.28383 3.01171 5.13797V5.1375ZM3.01171 7.04625C3.04149 6.90152 3.12701 6.77431 3.24981 6.69212C3.37261 6.60994 3.52281 6.57937 3.66796 6.60703L4.14187 6.70078C4.28799 6.73059 4.41628 6.81721 4.49856 6.94159C4.58083 7.06597 4.61035 7.21793 4.58062 7.36406C4.56582 7.43661 4.53684 7.50552 4.49534 7.56684C4.45385 7.62817 4.40065 7.6807 4.33881 7.72142C4.27697 7.76213 4.2077 7.79024 4.13497 7.80413C4.06224 7.81802 3.98749 7.81741 3.91499 7.80234L3.44624 7.70859C3.3002 7.67857 3.17205 7.59179 3.08996 7.46733C3.00786 7.34287 2.97854 7.19091 3.00843 7.04484L3.01171 7.04625ZM8.99999 7.45781C8.99999 9.12328 7.66452 10.4878 6.02343 10.5C5.38124 10.5046 4.75449 10.3032 4.23515 9.92539C3.71581 9.54761 3.33121 9.01333 3.13781 8.40093C3.19126 8.41896 3.24573 8.43383 3.30093 8.44547L3.76968 8.53922C3.85623 8.55685 3.94432 8.5658 4.03265 8.56594C4.26366 8.56587 4.49055 8.50485 4.69042 8.38901C4.89029 8.27318 5.05604 8.10665 5.17094 7.90625C5.28584 7.70584 5.34581 7.47866 5.34479 7.24766C5.34378 7.01665 5.28181 6.79001 5.16515 6.59062C5.20218 6.57047 5.23874 6.5489 5.2739 6.525L5.2814 6.53719C5.37618 6.68144 5.49866 6.80543 5.64172 6.90199C5.78479 6.99855 5.9456 7.06575 6.11484 7.09969L6.41109 7.15875C6.35494 7.42977 6.36632 7.71044 6.44423 7.97603C6.52213 8.24161 6.66416 8.48396 6.85781 8.68172C6.92807 8.74988 7.02221 8.78786 7.1201 8.78755C7.218 8.78724 7.31189 8.74866 7.38172 8.68005C7.45156 8.61145 7.49179 8.51825 7.49383 8.42037C7.49587 8.3225 7.45956 8.22771 7.39265 8.15625C7.25247 8.01322 7.16178 7.82906 7.13386 7.63074C7.10594 7.43243 7.14226 7.23039 7.23749 7.05422C7.2655 7.00261 7.281 6.94515 7.28274 6.88646C7.28448 6.82777 7.27241 6.76949 7.24751 6.71632C7.22261 6.66315 7.18557 6.61656 7.13938 6.58032C7.09319 6.54408 7.03913 6.51919 6.98156 6.50765L6.26249 6.36375C6.11646 6.33383 5.98828 6.24716 5.9061 6.1228C5.82392 5.99843 5.79447 5.84653 5.82421 5.70047C5.83902 5.62801 5.86797 5.55919 5.9094 5.49794C5.95083 5.43669 6.00394 5.38421 6.06567 5.3435C6.12741 5.30279 6.19657 5.27465 6.26919 5.2607C6.34181 5.24675 6.41647 5.24725 6.4889 5.26218L7.49249 5.46281C7.91714 5.54859 8.29912 5.77842 8.57382 6.11342C8.84852 6.44842 8.99906 6.86802 8.99999 7.30125V7.45781ZM9.35577 2.20781L8.57671 5.11406C8.29269 4.92446 7.97414 4.79258 7.63921 4.72593L7.52202 4.7025L8.26874 1.91765C8.28698 1.84536 8.31941 1.77741 8.36415 1.71776C8.40888 1.65811 8.46503 1.60795 8.52933 1.57019C8.59362 1.53243 8.66478 1.50784 8.73867 1.49783C8.81256 1.48783 8.8877 1.49261 8.95972 1.5119C9.03174 1.5312 9.09921 1.56462 9.1582 1.61023C9.21719 1.65583 9.26652 1.71271 9.30333 1.77755C9.34014 1.84239 9.36369 1.9139 9.37261 1.98793C9.38154 2.06195 9.37565 2.13702 9.35531 2.20875L9.35577 2.20781Z" fill="#EEF0F1"/>
</svg>
