<svg width="12" height="12" viewBox="0 0 12 12" fill="none" xmlns="http://www.w3.org/2000/svg">
<path d="M8.25 10.875C8.25 10.9744 8.21049 11.0698 8.14017 11.1401C8.06984 11.2105 7.97446 11.25 7.875 11.25H4.125C4.02554 11.25 3.93016 11.2105 3.85984 11.1401C3.78951 11.0698 3.75 10.9744 3.75 10.875C3.75 10.7755 3.78951 10.6801 3.85984 10.6098C3.93016 10.5395 4.02554 10.5 4.125 10.5H7.875C7.97446 10.5 8.06984 10.5395 8.14017 10.6098C8.21049 10.6801 8.25 10.7755 8.25 10.875ZM10.125 4.87498C10.1266 5.50012 9.98539 6.11737 9.71211 6.67962C9.43882 7.24187 9.0407 7.73426 8.54812 8.1192C8.45602 8.18979 8.38128 8.28051 8.32961 8.38442C8.27794 8.48833 8.25071 8.60268 8.25 8.71873V8.99998C8.25 9.19889 8.17098 9.38965 8.03033 9.53031C7.88968 9.67096 7.69891 9.74998 7.5 9.74998H4.5C4.30109 9.74998 4.11032 9.67096 3.96967 9.53031C3.82902 9.38965 3.75 9.19889 3.75 8.99998V8.71873C3.74992 8.60407 3.72356 8.49095 3.67293 8.38808C3.62231 8.2852 3.54877 8.1953 3.45797 8.12529C2.96669 7.74267 2.56887 7.25332 2.29462 6.69427C2.02038 6.13522 1.87688 5.52111 1.875 4.89841C1.86281 2.66388 3.66844 0.803883 5.90063 0.749977C6.45063 0.736723 6.99773 0.833627 7.50973 1.03498C8.02172 1.23634 8.48827 1.53809 8.8819 1.92246C9.27552 2.30683 9.58829 2.76605 9.80177 3.27311C10.0153 3.78017 10.1252 4.32481 10.125 4.87498ZM9.375 4.87498C9.37513 4.42482 9.28521 3.97918 9.11052 3.5643C8.93583 3.14942 8.67991 2.77367 8.35782 2.45919C8.03574 2.1447 7.65399 1.89782 7.23506 1.73309C6.81612 1.56836 6.36847 1.4891 5.91844 1.49998C4.09031 1.5431 2.61516 3.06513 2.625 4.89326C2.62668 5.4026 2.7442 5.90489 2.96867 6.36211C3.19313 6.81933 3.51867 7.21949 3.92063 7.53232C4.1013 7.67278 4.24745 7.85271 4.34787 8.05835C4.44829 8.26399 4.50033 8.48988 4.5 8.71873V8.99998H5.625V6.90513L4.23469 5.51529C4.16432 5.44492 4.12479 5.34949 4.12479 5.24998C4.12479 5.15046 4.16432 5.05503 4.23469 4.98466C4.30505 4.9143 4.40049 4.87477 4.5 4.87477C4.59951 4.87477 4.69495 4.9143 4.76531 4.98466L6 6.21982L7.23469 4.98466C7.26953 4.94982 7.31089 4.92218 7.35641 4.90333C7.40194 4.88447 7.45073 4.87477 7.5 4.87477C7.54927 4.87477 7.59806 4.88447 7.64359 4.90333C7.68911 4.92218 7.73047 4.94982 7.76531 4.98466C7.80015 5.0195 7.82779 5.06087 7.84665 5.10639C7.8655 5.15191 7.87521 5.2007 7.87521 5.24998C7.87521 5.29925 7.8655 5.34804 7.84665 5.39356C7.82779 5.43908 7.80015 5.48045 7.76531 5.51529L6.375 6.90513V8.99998H7.5V8.71873C7.50042 8.48921 7.5533 8.26282 7.65461 8.05687C7.75592 7.85092 7.90297 7.67086 8.08453 7.53044C8.4877 7.21537 8.81355 6.81233 9.0372 6.35211C9.26085 5.8919 9.37639 5.38666 9.375 4.87498Z" fill="#EEF0F1"/>
</svg>
