<svg width="12" height="13" viewBox="0 0 12 13" fill="none" xmlns="http://www.w3.org/2000/svg">
<path d="M10.7128 4.56219L2.46 2.03094C2.3483 1.99836 2.23055 1.99222 2.11607 2.01299C2.00158 2.03377 1.8935 2.0809 1.80037 2.15066C1.70725 2.22041 1.63163 2.31088 1.57949 2.4149C1.52736 2.51892 1.50015 2.63365 1.5 2.75V9.5C1.5 9.69891 1.57902 9.88968 1.71967 10.0303C1.86032 10.171 2.05109 10.25 2.25 10.25C2.32172 10.25 2.39307 10.2398 2.46188 10.2195L6.375 9.01859V9.5C6.375 9.69891 6.45402 9.88968 6.59467 10.0303C6.73532 10.171 6.92609 10.25 7.125 10.25H8.625C8.82391 10.25 9.01468 10.171 9.15533 10.0303C9.29598 9.88968 9.375 9.69891 9.375 9.5V8.09844L10.7128 7.68828C10.8676 7.64176 11.0034 7.54672 11.1002 7.41717C11.1969 7.28762 11.2494 7.13042 11.25 6.96875V5.28125C11.2493 5.11966 11.1967 4.96257 11.1 4.83311C11.0033 4.70366 10.8676 4.60869 10.7128 4.56219ZM6.375 8.23438L2.25 9.5V2.75L6.375 4.01563V8.23438ZM8.625 9.5H7.125V8.78844L8.625 8.32813V9.5ZM10.5 6.96875H10.4948L7.125 8.00375V4.24625L10.4948 5.2775H10.5V6.965V6.96875Z" fill="#EEF0F1"/>
</svg>
