<svg width="128" height="128" viewBox="0 0 128 128" fill="none" xmlns="http://www.w3.org/2000/svg">
<path d="M108 20H20C17.8783 20 15.8434 20.8429 14.3431 22.3431C12.8429 23.8434 12 25.8783 12 28V108C12.0004 108.682 12.175 109.352 12.5072 109.947C12.8395 110.543 13.3184 111.043 13.8985 111.401C14.4786 111.76 15.1406 111.964 15.8217 111.994C16.5028 112.024 17.1803 111.88 17.79 111.575L32 104.47L46.21 111.575C46.7657 111.853 47.3786 111.998 48 111.998C48.6214 111.998 49.2343 111.853 49.79 111.575L64 104.47L78.21 111.575C78.7657 111.853 79.3786 111.998 80 111.998C80.6214 111.998 81.2343 111.853 81.79 111.575L96 104.47L110.21 111.575C110.82 111.88 111.497 112.024 112.178 111.994C112.859 111.964 113.521 111.76 114.101 111.401C114.682 111.043 115.16 110.543 115.493 109.947C115.825 109.352 116 108.682 116 108V28C116 25.8783 115.157 23.8434 113.657 22.3431C112.157 20.8429 110.122 20 108 20ZM108 101.53L97.79 96.42C97.2343 96.1419 96.6214 95.9971 96 95.9971C95.3786 95.9971 94.7657 96.1419 94.21 96.42L80 103.53L65.79 96.42C65.2343 96.1419 64.6214 95.9971 64 95.9971C63.3786 95.9971 62.7657 96.1419 62.21 96.42L48 103.53L33.79 96.42C33.2343 96.1419 32.6214 95.9971 32 95.9971C31.3786 95.9971 30.7657 96.1419 30.21 96.42L20 101.53V28H108V101.53ZM68 56C68 54.9391 68.4214 53.9217 69.1716 53.1716C69.9217 52.4214 70.9391 52 72 52H96C97.0609 52 98.0783 52.4214 98.8284 53.1716C99.5786 53.9217 100 54.9391 100 56C100 57.0609 99.5786 58.0783 98.8284 58.8284C98.0783 59.5786 97.0609 60 96 60H72C70.9391 60 69.9217 59.5786 69.1716 58.8284C68.4214 58.0783 68 57.0609 68 56ZM68 72C68 70.9391 68.4214 69.9217 69.1716 69.1716C69.9217 68.4214 70.9391 68 72 68H96C97.0609 68 98.0783 68.4214 98.8284 69.1716C99.5786 69.9217 100 70.9391 100 72C100 73.0609 99.5786 74.0783 98.8284 74.8284C98.0783 75.5786 97.0609 76 96 76H72C70.9391 76 69.9217 75.5786 69.1716 74.8284C68.4214 74.0783 68 73.0609 68 72ZM32 84H56C57.0609 84 58.0783 83.5786 58.8284 82.8284C59.5786 82.0783 60 81.0609 60 80V48C60 46.9391 59.5786 45.9217 58.8284 45.1716C58.0783 44.4214 57.0609 44 56 44H32C30.9391 44 29.9217 44.4214 29.1716 45.1716C28.4214 45.9217 28 46.9391 28 48V80C28 81.0609 28.4214 82.0783 29.1716 82.8284C29.9217 83.5786 30.9391 84 32 84ZM36 52H52V76H36V52Z" fill="url(#paint0_linear_110_166)"/>
<defs>
<linearGradient id="paint0_linear_110_166" x1="57.9491" y1="104.043" x2="133.897" y2="79.5585" gradientUnits="userSpaceOnUse">
<stop stop-color="#57CF85"/>
<stop offset="1" stop-color="#3FC6D8"/>
</linearGradient>
</defs>
</svg>
