<svg width="128" height="128" viewBox="0 0 128 128" fill="none" xmlns="http://www.w3.org/2000/svg">
<path d="M79.9999 20C79.9999 16.8355 79.0616 13.7421 77.3035 11.1109C75.5454 8.4797 73.0465 6.42894 70.1229 5.21793C67.1993 4.00693 63.9822 3.69008 60.8785 4.30744C57.7748 4.92481 54.9239 6.44866 52.6862 8.6863C50.4486 10.9239 48.9247 13.7749 48.3074 16.8786C47.69 19.9823 48.0069 23.1993 49.2179 26.1229C50.4289 29.0466 52.4796 31.5454 55.1108 33.3035C57.742 35.0616 60.8354 36 63.9999 36C68.2434 36 72.3131 34.3143 75.3136 31.3137C78.3142 28.3131 79.9999 24.2435 79.9999 20ZM63.9999 28C62.4177 28 60.871 27.5308 59.5554 26.6518C58.2398 25.7727 57.2144 24.5233 56.6089 23.0615C56.0034 21.5997 55.845 19.9911 56.1537 18.4393C56.4623 16.8874 57.2243 15.462 58.3431 14.3432C59.4619 13.2243 60.8874 12.4624 62.4392 12.1537C63.9911 11.845 65.5996 12.0035 67.0614 12.609C68.5232 13.2145 69.7726 14.2399 70.6517 15.5554C71.5308 16.871 71.9999 18.4178 71.9999 20C71.9999 22.1217 71.1571 24.1566 69.6568 25.6569C68.1565 27.1572 66.1217 28 63.9999 28ZM115.75 43.855C115.295 41.6148 114.071 39.604 112.291 38.1698C110.511 36.7356 108.286 35.9682 106 36H21.9999C19.7204 35.9999 17.5092 36.7787 15.7327 38.2073C13.9563 39.6359 12.7213 41.6286 12.2324 43.8551C11.7434 46.0816 12.0299 48.4084 13.0443 50.4499C14.0586 52.4913 15.7401 54.1249 17.8099 55.08H17.8749L43.2499 66.255L32.7499 106.115C31.6513 108.535 31.559 111.293 32.4934 113.781C33.4278 116.269 35.3123 118.284 37.7324 119.383C40.1525 120.481 42.91 120.573 45.3981 119.639C47.8862 118.705 49.9013 116.82 50.9999 114.4L63.9999 91.965L76.9999 114.4C78.1552 116.717 80.1641 118.496 82.6039 119.362C85.0437 120.228 87.7244 120.114 90.0819 119.044C92.4395 117.974 94.2902 116.031 95.2447 113.625C96.1992 111.218 96.1832 108.535 95.1999 106.14L84.6999 66.28L110.075 55.105H110.14C112.243 54.1819 113.956 52.5508 114.981 50.4953C116.006 48.4399 116.278 46.0903 115.75 43.855ZM106.85 47.805L78.3849 60.335C77.5135 60.719 76.8077 61.4012 76.3943 62.2591C75.981 63.117 75.8872 64.0942 76.1299 65.015L87.5649 108.5C87.6233 108.733 87.7054 108.959 87.8099 109.175C87.9777 109.534 88.0352 109.934 87.975 110.326C87.9149 110.717 87.7398 111.082 87.472 111.374C87.2042 111.666 86.8557 111.872 86.4708 111.966C86.0859 112.059 85.6819 112.036 85.3099 111.9C84.8127 111.718 84.4081 111.345 84.1849 110.865C84.1343 110.757 84.0775 110.652 84.0149 110.55L67.4599 82C67.1083 81.3939 66.6036 80.8907 65.9964 80.5409C65.3892 80.1912 64.7007 80.0071 63.9999 80.0071C63.2992 80.0071 62.6107 80.1912 62.0035 80.5409C61.3963 80.8907 60.8916 81.3939 60.5399 82L43.9999 110.525C43.9374 110.627 43.8806 110.732 43.8299 110.84C43.6068 111.32 43.2022 111.693 42.7049 111.875C42.333 112.011 41.929 112.034 41.5441 111.941C41.1592 111.847 40.8107 111.641 40.5429 111.349C40.2751 111.057 40.1 110.692 40.0399 110.301C39.9797 109.909 40.0372 109.509 40.2049 109.15C40.3095 108.934 40.3916 108.708 40.4499 108.475L51.8699 65C52.1127 64.0792 52.0189 63.102 51.6056 62.2441C51.1922 61.3862 50.4864 60.704 49.6149 60.32L21.1499 47.805C20.7413 47.61 20.411 47.2822 20.2129 46.8751C20.0148 46.468 19.9607 46.0058 20.0594 45.5639C20.1581 45.1221 20.4038 44.7268 20.7563 44.4427C21.1088 44.1586 21.5472 44.0026 21.9999 44H106C106.454 43.9992 106.895 44.1529 107.25 44.4357C107.605 44.7186 107.853 45.1139 107.954 45.5567C108.054 45.9994 108.001 46.4631 107.804 46.8717C107.606 47.2804 107.275 47.6095 106.865 47.805H106.85Z" fill="url(#paint0_linear_110_213)"/>
<defs>
<linearGradient id="paint0_linear_110_213" x1="57.9547" y1="110.225" x2="136.684" y2="90.1409" gradientUnits="userSpaceOnUse">
<stop stop-color="#57CF85"/>
<stop offset="1" stop-color="#3FC6D8"/>
</linearGradient>
</defs>
</svg>
