<svg width="12" height="12" viewBox="0 0 12 12" fill="none" xmlns="http://www.w3.org/2000/svg">
<path d="M10.493 2.20875C10.4819 2.02591 10.4042 1.85345 10.2747 1.72392C10.1451 1.59439 9.97269 1.51674 9.78984 1.50563C9.20015 1.47047 7.69312 1.52438 6.4425 2.77454L6.21984 3H3.48562C3.38675 2.99945 3.28876 3.01856 3.19734 3.05622C3.10592 3.09388 3.02291 3.14934 2.95312 3.21938L1.34531 4.82813C1.24671 4.92667 1.17752 5.05073 1.1455 5.1864C1.11349 5.32208 1.11992 5.46398 1.16408 5.5962C1.20823 5.72842 1.28836 5.84572 1.39547 5.93493C1.50258 6.02415 1.63244 6.08174 1.77046 6.10126L3.57375 6.35297L5.64609 8.42532L5.89781 10.2295C5.91716 10.3676 5.97474 10.4974 6.06404 10.6045C6.15334 10.7115 6.27079 10.7914 6.40312 10.8352C6.4802 10.8609 6.56092 10.874 6.64218 10.8741C6.74058 10.8743 6.83804 10.855 6.92895 10.8173C7.01986 10.7797 7.10242 10.7244 7.17187 10.6547L8.78062 9.04688C8.85066 8.97709 8.90612 8.89408 8.94378 8.80266C8.98144 8.71124 9.00055 8.61325 9 8.51438V5.78016L9.22359 5.55657C10.4742 4.30594 10.5281 2.79891 10.493 2.20875ZM3.48562 3.75001H5.46984L3.61687 5.6025L1.875 5.35969L3.48562 3.75001ZM6.97359 3.30704C7.33393 2.94448 7.76749 2.66298 8.2453 2.48134C8.72311 2.29971 9.23418 2.22212 9.74437 2.25375C9.77723 2.76421 9.70045 3.27579 9.51918 3.75411C9.33791 4.23243 9.05635 4.66641 8.69343 5.02688L6 7.71938L4.28062 6.00001L6.97359 3.30704ZM8.25 8.51438L6.64078 10.125L6.3975 8.38266L8.25 6.53016V8.51438ZM4.77375 8.95969C4.56281 9.42188 3.85734 10.5 1.875 10.5C1.77554 10.5 1.68016 10.4605 1.60983 10.3902C1.5395 10.3198 1.5 10.2245 1.5 10.125C1.5 8.14266 2.57812 7.43719 3.04031 7.22579C3.08512 7.20535 3.13352 7.19394 3.18275 7.19221C3.23197 7.19048 3.28105 7.19846 3.32719 7.21569C3.37333 7.23293 3.41562 7.25909 3.45165 7.29267C3.48768 7.32625 3.51675 7.3666 3.53718 7.41141C3.55762 7.45622 3.56903 7.50463 3.57076 7.55385C3.57249 7.60307 3.56451 7.65215 3.54728 7.69829C3.53004 7.74443 3.50388 7.78672 3.4703 7.82276C3.43672 7.85879 3.39637 7.88785 3.35156 7.90829C3.05015 8.04563 2.385 8.48766 2.26781 9.73219C3.51234 9.61501 3.95531 8.94985 4.09171 8.64844C4.11215 8.60363 4.14121 8.56328 4.17725 8.5297C4.21328 8.49612 4.25557 8.46996 4.30171 8.45272C4.34785 8.43549 4.39693 8.42751 4.44615 8.42924C4.49538 8.43097 4.54378 8.44238 4.58859 8.46282C4.6334 8.48325 4.67375 8.51232 4.70733 8.54835C4.74092 8.58438 4.76707 8.62667 4.78431 8.67281C4.80154 8.71895 4.80953 8.76803 4.80779 8.81726C4.80606 8.86648 4.79465 8.91488 4.77421 8.95969H4.77375Z" fill="#EEF0F1"/>
</svg>
