<svg width="1383" height="1200" viewBox="0 0 1383 1200" fill="none" xmlns="http://www.w3.org/2000/svg">
<g filter="url(#filter0_d_3_868)">
<g clip-path="url(#clip0_3_868)">
<rect x="306.931" y="394.313" width="600" height="600" rx="300" transform="rotate(-16 306.931 394.313)" fill="url(#paint0_linear_3_868)"/>
<g filter="url(#filter1_f_3_868)">
<path opacity="0.7" d="M-1159.06 894.26L-1114.36 873.081C-1040.73 838.191 -962.607 813.703 -882.236 800.319L-846.058 794.295C-789.688 784.908 -734.896 767.733 -683.254 743.262V743.262C-631.612 718.792 -576.82 701.617 -520.45 692.23L-448.096 680.181C-391.726 670.794 -336.934 653.619 -285.292 629.149V629.149C-233.65 604.678 -178.858 587.503 -122.488 578.116L-13.9564 560.043C18.412 554.653 49.8743 544.791 79.5277 530.739V530.739C153.158 495.849 231.28 471.361 311.652 457.978L347.829 451.953C404.199 442.567 458.991 425.391 510.633 400.921C562.275 376.45 617.067 359.275 673.437 349.888L745.791 337.84C802.161 328.453 856.953 311.278 908.595 286.807C960.237 262.336 1015.03 245.161 1071.4 235.774L1228.72 209.577" stroke="#374F1A" stroke-width="8"/>
<path opacity="0.7" d="M-1148.03 932.711L-1103.33 911.531C-1029.7 876.642 -951.582 852.153 -871.21 838.77L-835.033 832.745C-778.663 823.359 -723.871 806.183 -672.229 781.713V781.713C-620.587 757.242 -565.795 740.067 -509.425 730.68L-437.07 718.632C-380.7 709.245 -325.908 692.07 -274.266 667.599V667.599C-222.625 643.128 -167.833 625.953 -111.463 616.566L-2.93092 598.493C29.4375 593.103 60.8997 583.241 90.5531 569.19V569.19C164.183 534.3 242.305 509.812 322.677 496.428L358.854 490.404C415.224 481.017 470.016 463.842 521.658 439.371C573.3 414.901 628.092 397.725 684.462 388.339L756.817 376.29C813.187 366.903 867.979 349.728 919.621 325.257C971.262 300.787 1026.05 283.612 1082.42 274.225L1239.74 248.028" stroke="#5D7D34" stroke-width="16"/>
<path opacity="0.7" d="M-1106.68 1076.9L-1061.99 1055.72C-988.358 1020.83 -910.236 996.343 -829.864 982.959L-793.687 976.935C-737.317 967.548 -682.525 950.373 -630.883 925.902V925.902C-579.241 901.431 -524.449 884.256 -468.079 874.869L-395.725 862.821C-339.355 853.434 -284.563 836.259 -232.921 811.788V811.788C-181.279 787.318 -126.487 770.142 -70.1169 760.756L38.4147 742.683C70.7831 737.293 102.245 727.43 131.899 713.379V713.379C205.529 678.489 283.651 654.001 364.023 640.617L400.2 634.593C456.57 625.206 511.362 608.031 563.004 583.56C614.646 559.09 669.438 541.915 725.808 532.528L798.162 520.479C854.532 511.092 909.324 493.917 960.966 469.447C1012.61 444.976 1067.4 427.801 1123.77 418.414L1281.09 392.217" stroke="#D7EFB8" stroke-width="16"/>
<path opacity="0.7" d="M-1117.71 1038.45L-1073.01 1017.27C-999.383 982.38 -921.262 957.892 -840.89 944.509L-804.713 938.484C-748.343 929.097 -693.551 911.922 -641.909 887.452V887.452C-590.267 862.981 -535.475 845.806 -479.105 836.419L-406.75 824.37C-350.38 814.984 -295.588 797.808 -243.946 773.338V773.338C-192.304 748.867 -137.512 731.692 -81.1424 722.305L27.3892 704.232C59.7576 698.842 91.2199 688.98 120.873 674.929V674.929C194.504 640.039 272.625 615.551 352.997 602.167L389.174 596.143C445.544 586.756 500.337 569.581 551.978 545.11C603.62 520.639 658.412 503.464 714.782 494.077L787.137 482.029C843.507 472.642 898.299 455.467 949.941 430.996C1001.58 406.525 1056.37 389.35 1112.74 379.963L1270.06 353.766" stroke="#62823A" stroke-width="24"/>
<path opacity="0.7" d="M-1037.77 1317.22L-993.079 1296.04C-919.449 1261.15 -841.327 1236.66 -760.955 1223.27L-724.778 1217.25C-668.408 1207.86 -613.616 1190.69 -561.974 1166.22V1166.22C-510.332 1141.75 -455.54 1124.57 -399.17 1115.18L-326.816 1103.14C-270.445 1093.75 -215.653 1076.57 -164.011 1052.1V1052.1C-112.37 1027.63 -57.5776 1010.46 -1.20755 1001.07L107.324 982.998C139.692 977.608 171.155 967.746 200.808 953.695V953.695C274.438 918.805 352.56 894.316 432.932 880.933L469.109 874.908C525.479 865.522 580.271 848.346 631.913 823.876C683.555 799.405 738.347 782.23 794.717 772.843L867.071 760.795C923.442 751.408 978.234 734.233 1029.88 709.762C1081.52 685.291 1136.31 668.116 1192.68 658.729L1350 632.532" stroke="#62823A" stroke-width="8"/>
<path opacity="0.7" d="M-1023.99 1365.28L-979.297 1344.1C-905.667 1309.21 -827.545 1284.72 -747.173 1271.34L-710.996 1265.31C-654.626 1255.93 -599.834 1238.75 -548.192 1214.28V1214.28C-496.55 1189.81 -441.758 1172.63 -385.388 1163.25L-313.034 1151.2C-256.664 1141.81 -201.872 1124.64 -150.23 1100.17V1100.17C-98.5878 1075.7 -43.7957 1058.52 12.5743 1049.13L121.106 1031.06C153.474 1025.67 184.937 1015.81 214.59 1001.76V1001.76C288.22 966.868 366.342 942.38 446.714 928.996L482.891 922.972C539.261 913.585 594.053 896.41 645.695 871.939C697.337 847.468 752.129 830.293 808.499 820.906L880.853 808.858C937.223 799.471 992.016 782.296 1043.66 757.825C1095.3 733.355 1150.09 716.179 1206.46 706.793L1363.78 680.595" stroke="#789E47" stroke-width="16"/>
<path opacity="0.7" d="M-1048.8 1278.76L-1004.1 1257.59C-930.474 1222.7 -852.352 1198.21 -771.981 1184.82L-735.803 1178.8C-679.433 1169.41 -624.641 1152.24 -572.999 1127.77V1127.77C-521.357 1103.3 -466.565 1086.12 -410.195 1076.73L-337.841 1064.69C-281.471 1055.3 -226.679 1038.12 -175.037 1013.65V1013.65C-123.395 989.182 -68.6031 972.007 -12.233 962.621L96.2985 944.548C128.667 939.158 160.129 929.295 189.783 915.244V915.244C263.413 880.354 341.535 855.866 421.906 842.482L458.084 836.458C514.454 827.071 569.246 809.896 620.888 785.425C672.53 760.955 727.322 743.78 783.692 734.393L856.046 722.344C912.416 712.957 967.208 695.782 1018.85 671.312C1070.49 646.841 1125.28 629.666 1181.65 620.279L1338.97 594.082" stroke="#D0F0A6" stroke-width="16"/>
</g>
<g filter="url(#filter2_f_3_868)">
<path d="M530.383 215.122C365.037 538.902 631.67 915.055 991.937 866.259L1107.45 850.614L94.0994 1024.85L530.383 215.122Z" fill="url(#paint1_linear_3_868)" fill-opacity="0.4"/>
</g>
<g opacity="0.2" filter="url(#filter3_f_3_868)">
<path d="M836.474 979.638C1021.51 666.695 778.635 274.783 416.042 301.221L299.786 309.698L1321.96 198.42L836.474 979.638Z" fill="#F3FFE2"/>
</g>
</g>
</g>
<g filter="url(#filter4_f_3_868)">
<path d="M961.517 489.517C1157.46 444.53 1294.46 427.232 1301.16 450.602C1310.87 484.467 1043.31 590.9 703.538 688.327C363.769 785.755 80.459 837.283 70.7485 803.418C64.0472 780.048 189.4 722.116 379.406 656.435" stroke="url(#paint2_linear_3_868)" stroke-width="26"/>
</g>
<g opacity="0.8" filter="url(#filter5_f_3_868)">
<path d="M969.35 513.161C1147.55 468.546 1253.34 449.165 1257.23 462.697C1262.85 482.305 1015.5 570.433 704.764 659.536C394.025 748.639 137.563 804.975 131.941 785.367C128.06 771.835 210.526 737.235 385.293 680.637" stroke="url(#paint3_linear_3_868)" stroke-width="10"/>
</g>
<g opacity="0.8" filter="url(#filter6_f_3_868)">
<path d="M971.658 526.719C1132.85 484.422 1195.12 470.23 1197.47 478.417C1200.87 490.281 975.044 565.445 693.068 646.3C411.091 727.156 179.746 783.085 176.344 771.221C173.996 763.033 229.951 743.324 389.061 693.776" stroke="url(#paint4_linear_3_868)" stroke-width="12"/>
</g>
<defs>
<filter id="filter0_d_3_868" x="226.931" y="148.93" width="902.139" height="902.139" filterUnits="userSpaceOnUse" color-interpolation-filters="sRGB">
<feFlood flood-opacity="0" result="BackgroundImageFix"/>
<feColorMatrix in="SourceAlpha" type="matrix" values="0 0 0 0 0 0 0 0 0 0 0 0 0 0 0 0 0 0 127 0" result="hardAlpha"/>
<feOffset/>
<feGaussianBlur stdDeviation="40"/>
<feComposite in2="hardAlpha" operator="out"/>
<feColorMatrix type="matrix" values="0 0 0 0 0.201042 0 0 0 0 0.304167 0 0 0 0 0.0544965 0 0 0 0.6 0"/>
<feBlend mode="normal" in2="BackgroundImageFix" result="effect1_dropShadow_3_868"/>
<feBlend mode="normal" in="SourceGraphic" in2="effect1_dropShadow_3_868" result="shape"/>
</filter>
<filter id="filter1_f_3_868" x="-1184.77" y="181.631" width="2573.86" height="1214.88" filterUnits="userSpaceOnUse" color-interpolation-filters="sRGB">
<feFlood flood-opacity="0" result="BackgroundImageFix"/>
<feBlend mode="normal" in="SourceGraphic" in2="BackgroundImageFix" result="shape"/>
<feGaussianBlur stdDeviation="12" result="effect1_foregroundBlur_3_868"/>
</filter>
<filter id="filter2_f_3_868" x="54.0994" y="175.122" width="1093.35" height="889.728" filterUnits="userSpaceOnUse" color-interpolation-filters="sRGB">
<feFlood flood-opacity="0" result="BackgroundImageFix"/>
<feBlend mode="normal" in="SourceGraphic" in2="BackgroundImageFix" result="shape"/>
<feGaussianBlur stdDeviation="20" result="effect1_foregroundBlur_3_868"/>
</filter>
<filter id="filter3_f_3_868" x="249.786" y="148.42" width="1122.18" height="881.218" filterUnits="userSpaceOnUse" color-interpolation-filters="sRGB">
<feFlood flood-opacity="0" result="BackgroundImageFix"/>
<feBlend mode="normal" in="SourceGraphic" in2="BackgroundImageFix" result="shape"/>
<feGaussianBlur stdDeviation="25" result="effect1_foregroundBlur_3_868"/>
</filter>
<filter id="filter4_f_3_868" x="52.4772" y="422.199" width="1266.95" height="409.623" filterUnits="userSpaceOnUse" color-interpolation-filters="sRGB">
<feFlood flood-opacity="0" result="BackgroundImageFix"/>
<feBlend mode="normal" in="SourceGraphic" in2="BackgroundImageFix" result="shape"/>
<feGaussianBlur stdDeviation="2.5" result="effect1_foregroundBlur_3_868"/>
</filter>
<filter id="filter5_f_3_868" x="116.801" y="443.455" width="1155.53" height="360.808" filterUnits="userSpaceOnUse" color-interpolation-filters="sRGB">
<feFlood flood-opacity="0" result="BackgroundImageFix"/>
<feBlend mode="normal" in="SourceGraphic" in2="BackgroundImageFix" result="shape"/>
<feGaussianBlur stdDeviation="5" result="effect1_foregroundBlur_3_868"/>
</filter>
<filter id="filter6_f_3_868" x="160.259" y="460.205" width="1053.26" height="328.603" filterUnits="userSpaceOnUse" color-interpolation-filters="sRGB">
<feFlood flood-opacity="0" result="BackgroundImageFix"/>
<feBlend mode="normal" in="SourceGraphic" in2="BackgroundImageFix" result="shape"/>
<feGaussianBlur stdDeviation="5" result="effect1_foregroundBlur_3_868"/>
</filter>
<linearGradient id="paint0_linear_3_868" x1="859.93" y1="549.813" x2="306.93" y2="749.813" gradientUnits="userSpaceOnUse">
<stop stop-color="#A7CF75"/>
<stop offset="1" stop-color="#627B34"/>
</linearGradient>
<linearGradient id="paint1_linear_3_868" x1="365.235" y1="820.762" x2="627.901" y2="678.234" gradientUnits="userSpaceOnUse">
<stop/>
<stop offset="1" stop-color="#9DC267"/>
</linearGradient>
<linearGradient id="paint2_linear_3_868" x1="670.462" y1="572.976" x2="703.538" y2="688.327" gradientUnits="userSpaceOnUse">
<stop stop-color="#516932"/>
<stop offset="1" stop-color="#84AB51"/>
</linearGradient>
<linearGradient id="paint3_linear_3_868" x1="686.082" y1="594.387" x2="704.764" y2="659.536" gradientUnits="userSpaceOnUse">
<stop stop-color="#5D7A37"/>
<stop offset="1" stop-color="#F3FFE3"/>
</linearGradient>
<linearGradient id="paint4_linear_3_868" x1="682.55" y1="609.62" x2="693.068" y2="646.3" gradientUnits="userSpaceOnUse">
<stop stop-color="#2B361D"/>
<stop offset="1" stop-color="#64843A"/>
</linearGradient>
<clipPath id="clip0_3_868">
<rect x="306.931" y="394.313" width="600" height="600" rx="300" transform="rotate(-16 306.931 394.313)" fill="white"/>
</clipPath>
</defs>
</svg>
