<svg width="128" height="128" viewBox="0 0 128 128" fill="none" xmlns="http://www.w3.org/2000/svg">
<path d="M122.4 75.2001C121.98 75.5153 121.502 75.7446 120.993 75.8749C120.484 76.0053 119.954 76.0342 119.434 75.9599C118.914 75.8856 118.414 75.7096 117.962 75.442C117.51 75.1743 117.115 74.8203 116.8 74.4001C114.389 71.1594 111.251 68.53 107.638 66.7237C104.025 64.9173 100.039 63.9844 96 64.0001C95.2134 64 94.4443 63.768 93.7889 63.3331C93.1335 62.8983 92.6208 62.2798 92.315 61.5551C92.1074 61.063 92.0004 60.5342 92.0004 60.0001C92.0004 59.4659 92.1074 58.9372 92.315 58.4451C92.6208 57.7204 93.1335 57.1019 93.7889 56.667C94.4443 56.2321 95.2134 56.0002 96 56.0001C98.2444 55.9999 100.444 55.3703 102.348 54.1828C104.253 52.9953 105.786 51.2975 106.774 49.2823C107.762 47.2671 108.165 45.0152 107.937 42.7824C107.709 40.5496 106.86 38.4255 105.485 36.6512C104.111 34.8769 102.267 33.5237 100.162 32.7452C98.0565 31.9666 95.7754 31.7941 93.5772 32.247C91.379 32.6999 89.3519 33.7603 87.7261 35.3075C86.1004 36.8548 84.9411 38.827 84.38 41.0001C84.2487 41.509 84.0184 41.987 83.7024 42.4069C83.3863 42.8267 82.9906 43.1803 82.5379 43.4472C82.0853 43.7142 81.5844 43.8894 81.064 43.9628C80.5436 44.0362 80.0139 44.0064 79.505 43.8751C78.9961 43.7438 78.5181 43.5135 78.0982 43.1974C77.6783 42.8814 77.3248 42.4857 77.0579 42.033C76.7909 41.5803 76.6157 41.0795 76.5423 40.5591C76.4689 40.0387 76.4987 39.509 76.63 39.0001C77.4088 35.9866 78.8801 33.1966 80.927 30.8518C82.9738 28.5071 85.5396 26.6724 88.4202 25.4938C91.3009 24.3152 94.4169 23.8252 97.5202 24.0627C100.624 24.3003 103.629 25.2588 106.296 26.8621C108.964 28.4654 111.221 30.6692 112.887 33.2982C114.553 35.9271 115.583 38.9086 115.894 42.0055C116.205 45.1023 115.789 48.229 114.679 51.1368C113.569 54.0446 111.796 56.6532 109.5 58.7551C114.939 61.1101 119.667 64.8471 123.215 69.5951C123.53 70.0164 123.759 70.4957 123.889 71.0056C124.018 71.5155 124.046 72.046 123.97 72.5667C123.895 73.0873 123.717 73.5879 123.448 74.0398C123.178 74.4917 122.822 74.886 122.4 75.2001ZM95.46 106C95.7494 106.455 95.9438 106.964 96.0313 107.497C96.1189 108.029 96.0978 108.574 95.9695 109.098C95.8411 109.622 95.6081 110.114 95.2845 110.546C94.9608 110.977 94.5532 111.339 94.0861 111.609C93.6191 111.879 93.1022 112.052 92.5667 112.117C92.0311 112.182 91.488 112.138 90.9699 111.988C90.4518 111.837 89.9694 111.584 89.5518 111.242C89.1342 110.901 88.7901 110.478 88.54 110C86.0202 105.733 82.4316 102.197 78.1281 99.7411C73.8247 97.2847 68.9552 95.9928 64 95.9928C59.0449 95.9928 54.1753 97.2847 49.8719 99.7411C45.5684 102.197 41.9798 105.733 39.46 110C39.2099 110.478 38.8658 110.901 38.4482 111.242C38.0306 111.584 37.5483 111.837 37.0302 111.988C36.512 112.138 35.9689 112.182 35.4333 112.117C34.8978 112.052 34.381 111.879 33.9139 111.609C33.4468 111.339 33.0392 110.977 32.7155 110.546C32.3919 110.114 32.1589 109.622 32.0305 109.098C31.9022 108.574 31.8811 108.029 31.9687 107.497C32.0563 106.964 32.2506 106.455 32.54 106C36.418 99.337 42.331 94.0935 49.41 91.0401C45.4266 87.9903 42.4991 83.7689 41.039 78.9692C39.5789 74.1696 39.6595 69.033 41.2696 64.2816C42.8797 59.5302 45.9382 55.4027 50.0154 52.4795C54.0925 49.5562 58.9832 47.9841 64 47.9841C69.0168 47.9841 73.9075 49.5562 77.9847 52.4795C82.0618 55.4027 85.1204 59.5302 86.7304 64.2816C88.3405 69.033 88.4211 74.1696 86.961 78.9692C85.5009 83.7689 82.5734 87.9903 78.59 91.0401C85.669 94.0935 91.582 99.337 95.46 106ZM64 88.0001C67.1645 88.0001 70.2579 87.0617 72.8891 85.3036C75.5203 83.5455 77.5711 81.0466 78.7821 78.123C79.9931 75.1994 80.3099 71.9823 79.6926 68.8786C79.0752 65.7749 77.5514 62.924 75.3137 60.6864C73.0761 58.4487 70.2252 56.9249 67.1215 56.3075C64.0178 55.6902 60.8007 56.007 57.8771 57.218C54.9535 58.429 52.4546 60.4798 50.6965 63.111C48.9384 65.7421 48 68.8356 48 72.0001C48 76.2435 49.6857 80.3132 52.6863 83.3138C55.6869 86.3144 59.7565 88.0001 64 88.0001ZM36 60.0001C36 58.9392 35.5786 57.9218 34.8284 57.1717C34.0783 56.4215 33.0609 56.0001 32 56.0001C29.7556 55.9999 27.5563 55.3703 25.6518 54.1828C23.7474 52.9953 22.2141 51.2975 21.2262 49.2823C20.2382 47.2671 19.8353 45.0152 20.063 42.7824C20.2907 40.5496 21.1401 38.4255 22.5145 36.6512C23.889 34.8769 25.7335 33.5237 27.8385 32.7452C29.9435 31.9666 32.2247 31.7941 34.4228 32.247C36.621 32.6999 38.6481 33.7603 40.2739 35.3075C41.8997 36.8548 43.0589 38.827 43.62 41.0001C43.8852 42.0278 44.5478 42.9081 45.4621 43.4472C46.3763 43.9864 47.4673 44.1403 48.495 43.8751C49.5227 43.6099 50.403 42.9473 50.9422 42.033C51.4813 41.1188 51.6352 40.0278 51.37 39.0001C50.5912 35.9866 49.1199 33.1966 47.0731 30.8518C45.0262 28.5071 42.4604 26.6724 39.5798 25.4938C36.6991 24.3152 33.5832 23.8252 30.4798 24.0627C27.3764 24.3003 24.3713 25.2588 21.7036 26.8621C19.0359 28.4654 16.7792 30.6692 15.1131 33.2982C13.447 35.9271 12.4174 38.9086 12.1063 42.0055C11.7953 45.1023 12.2113 48.229 13.3212 51.1368C14.4312 54.0446 16.2045 56.6532 18.5 58.7551C13.0664 61.1123 8.34358 64.8492 4.80001 69.5951C4.16282 70.4438 3.88888 71.5108 4.03844 72.5615C4.188 73.6122 4.74881 74.5604 5.59751 75.1976C6.4462 75.8348 7.51325 76.1087 8.56392 75.9591C9.6146 75.8096 10.5628 75.2488 11.2 74.4001C13.6109 71.1594 16.7491 68.53 20.3618 66.7237C23.9745 64.9173 27.9609 63.9844 32 64.0001C33.0609 64.0001 34.0783 63.5787 34.8284 62.8285C35.5786 62.0784 36 61.0609 36 60.0001Z" fill="url(#paint0_linear_110_108)"/>
<defs>
<linearGradient id="paint0_linear_110_108" x1="57.0226" y1="104.525" x2="141.097" y2="71.8782" gradientUnits="userSpaceOnUse">
<stop stop-color="#57CF85"/>
<stop offset="1" stop-color="#3FC6D8"/>
</linearGradient>
</defs>
</svg>
